<?xml version="1.0" encoding="UTF-8" standalone="no"?>
<!DOCTYPE svg PUBLIC "-//W3C//DTD SVG 20010904//EN"
              "http://www.w3.org/TR/2001/REC-SVG-20010904/DTD/svg10.dtd">

<svg xmlns="http://www.w3.org/2000/svg"
     width="1.49667in" height="1.39333in"
     viewBox="0 0 449 418">
  <path id="Selection #1"
        fill="none" stroke="black" stroke-width="1"
        d="M 0.00,135.00
           C 0.00,131.66 -0.35,121.57 0.60,119.00
             1.77,115.82 5.59,112.41 8.00,110.00
             8.00,110.00 27.00,92.00 27.00,92.00
             27.00,92.00 48.00,71.99 48.00,71.99
             48.00,71.99 74.04,45.01 74.04,45.01
             74.04,45.01 83.00,36.91 83.00,36.91
             83.00,36.91 96.00,24.00 96.00,24.00
             100.05,19.95 116.44,2.80 120.00,1.01
             123.47,-0.71 133.40,-0.43 137.00,1.01
             137.00,1.01 98.00,39.00 98.00,39.00
             98.00,39.00 52.00,84.99 52.00,84.99
             52.00,84.99 34.00,102.00 34.00,102.00
             34.00,102.00 0.00,135.00 0.00,135.00 Z
           M 315.00,0.00
           C 315.00,0.00 331.00,0.60 331.00,0.60
             331.00,0.60 341.00,9.00 341.00,9.00
             341.00,9.00 359.00,27.00 359.00,27.00
             359.00,27.00 424.00,92.00 424.00,92.00
             424.00,92.00 439.00,106.42 439.00,106.42
             439.00,106.42 448.40,116.17 448.40,116.17
             448.40,116.17 449.00,132.00 449.00,132.00
             449.00,132.00 433.00,117.17 433.00,117.17
             433.00,117.17 372.00,57.00 372.00,57.00
             372.00,57.00 333.00,19.00 333.00,19.00
             333.00,19.00 315.00,0.00 315.00,0.00 Z
           M 216.00,12.42
           C 226.40,11.16 247.45,13.82 258.00,16.00
             306.21,26.00 341.28,63.42 354.57,110.00
             359.70,127.95 360.03,138.67 360.00,157.00
             359.97,174.93 355.19,191.79 347.77,208.00
             333.95,238.20 313.90,259.90 284.00,274.75
             260.90,286.23 244.54,289.30 219.00,289.00
             167.88,288.40 114.77,245.70 97.06,199.00
             88.00,175.10 87.49,134.35 95.02,110.00
             104.66,78.89 133.08,43.06 162.00,28.11
             179.03,19.30 197.19,15.15 216.00,12.42 Z
           M 217.00,26.28
           C 209.74,27.33 204.88,27.55 198.00,30.99
             190.08,34.95 185.73,40.36 180.25,47.00
             165.73,64.58 162.93,73.75 161.96,96.00
             161.96,96.00 161.32,105.00 161.32,105.00
             162.10,115.42 162.50,124.99 166.09,135.00
             177.43,166.62 210.54,194.59 245.00,195.00
             245.00,195.00 254.00,195.00 254.00,195.00
             289.95,194.94 322.33,168.62 332.97,135.00
             336.73,123.13 336.02,117.04 336.00,105.00
             335.97,86.84 326.53,72.40 314.00,60.00
             292.92,39.14 264.87,29.72 236.00,26.83
             229.14,26.15 223.98,25.64 217.00,26.28 Z
           M 162.00,44.00
           C 151.06,49.88 140.93,59.63 132.87,69.00
             115.40,89.32 103.04,117.91 103.00,145.00
             103.00,145.00 103.00,164.00 103.00,164.00
             103.16,177.29 108.42,196.14 114.37,208.00
             118.83,216.90 127.48,228.60 134.17,236.00
             150.31,253.87 174.09,269.04 198.00,273.39
             210.88,275.73 223.97,275.15 237.00,275.00
             255.38,274.78 275.90,266.02 291.00,256.00
             307.39,245.12 320.73,230.03 330.42,213.00
             339.16,197.64 345.12,174.68 345.90,157.00
             345.90,157.00 345.00,145.00 345.00,145.00
             340.83,147.50 339.92,150.89 337.69,155.00
             334.40,161.07 331.66,165.56 327.33,171.00
             316.00,185.26 299.08,196.74 282.00,202.95
             232.25,221.03 177.42,189.07 156.31,143.00
             149.51,128.17 147.82,113.12 148.00,97.00
             148.26,75.21 160.80,57.34 162.00,44.00 Z
           M 225.00,47.43
           C 258.52,43.59 271.40,92.10 240.00,104.54
             235.46,106.34 230.88,107.17 226.00,106.96
             208.86,106.21 197.62,90.24 198.01,74.00
             198.40,58.20 210.67,49.81 225.00,47.43 Z
           M 226.00,59.90
           C 206.70,63.86 205.46,92.42 226.00,92.98
             229.46,93.08 232.78,93.09 235.99,91.59
             245.95,86.92 247.89,73.06 240.61,65.21
             236.88,61.18 231.27,59.92 226.00,59.90 Z
           M 296.00,103.00
           C 296.01,100.02 295.67,92.55 299.23,91.34
             304.19,89.64 304.94,100.23 305.00,103.00
             308.70,103.49 316.98,103.66 318.04,108.06
             318.42,109.67 317.76,110.97 316.55,111.99
             313.81,114.33 309.86,113.40 307.58,115.60
             305.38,117.72 304.99,124.80 300.95,124.80
             297.42,124.80 296.84,119.37 293.73,116.65
             290.91,114.19 285.71,113.37 283.79,110.61
             279.23,104.01 292.59,103.28 296.00,103.00 Z
           M 260.00,138.00
           C 260.00,134.09 260.04,125.61 261.72,122.23
             263.24,119.18 266.90,118.44 269.02,121.32
             271.68,124.94 270.23,132.99 272.02,135.69
             274.76,139.79 289.27,136.81 287.63,145.95
             286.49,152.31 276.67,150.15 272.85,155.27
             269.78,159.39 272.15,170.05 265.08,168.51
             258.61,167.11 261.38,158.06 256.58,153.65
             252.93,150.28 246.64,150.93 243.74,147.43
             241.17,144.33 242.88,141.23 246.06,139.57
             249.84,137.59 255.77,138.00 260.00,138.00 Z
           M 53.15,122.02
           C 57.43,120.50 68.75,120.22 66.34,127.94
             63.79,136.16 43.86,130.40 53.15,122.02 Z
           M 390.02,121.80
           C 392.51,121.11 398.31,120.28 400.38,121.80
             402.54,123.83 401.56,128.53 394.00,128.96
             384.55,129.49 382.52,124.75 390.02,121.80 Z
           M 404.00,168.00
           C 404.60,165.65 405.12,161.39 406.74,159.72
             408.37,158.04 411.75,157.42 414.00,157.17
             419.24,156.60 433.55,154.83 437.26,158.72
             438.34,159.86 438.81,161.45 438.58,163.00
             437.78,168.35 432.07,167.99 428.00,168.00
             428.00,168.00 419.00,168.00 419.00,168.00
             419.00,168.00 404.00,168.00 404.00,168.00 Z
           M 49.00,157.00
           C 52.86,157.02 61.88,156.28 64.39,159.30
             68.14,163.82 61.11,170.70 54.00,168.00
             54.00,168.00 58.00,167.00 58.00,167.00
             49.31,166.69 49.03,165.59 49.00,157.00 Z
           M 368.11,224.06
           C 373.75,224.06 377.58,227.55 382.00,230.71
             382.00,230.71 407.96,249.67 407.96,249.67
             410.66,251.92 417.76,260.33 409.94,261.36
             405.99,261.88 400.05,257.11 397.00,254.88
             397.00,254.88 378.00,241.54 378.00,241.54
             374.92,239.55 369.75,236.91 367.23,234.48
             363.44,230.84 363.14,226.55 368.11,224.06 Z
           M 80.00,224.70
           C 83.84,225.00 87.45,227.49 86.16,231.91
             85.28,234.89 80.45,238.03 78.00,239.87
             78.00,239.87 58.00,255.12 58.00,255.12
             55.55,256.92 51.06,260.43 48.02,260.58
             43.56,260.80 39.11,255.04 46.11,248.30
             46.11,248.30 61.00,237.35 61.00,237.35
             66.96,232.80 72.65,226.81 80.00,224.70 Z
           M 341.23,258.23
           C 347.03,257.60 349.63,262.11 353.17,266.00
             353.17,266.00 373.00,285.83 373.00,285.83
             375.50,288.10 380.56,291.82 381.60,295.00
             382.75,298.52 379.45,303.29 372.00,298.20
             365.79,293.95 349.76,277.97 344.02,272.00
             340.10,267.93 335.52,262.93 341.23,258.23 Z
           M 106.00,258.77
           C 114.03,257.70 113.84,264.02 109.77,269.00
             109.77,269.00 82.00,296.67 82.00,296.67
             78.66,299.43 70.01,305.24 67.84,297.94
             66.55,293.59 72.18,288.73 75.00,286.09
             75.00,286.09 83.00,278.96 83.00,278.96
             89.62,272.63 97.87,262.52 106.00,258.77 Z
           M 0.00,276.00
           C 0.00,276.00 24.17,300.00 24.17,300.00
             24.17,300.00 41.99,318.00 41.99,318.00
             41.99,318.00 55.00,332.00 55.00,332.00
             55.00,332.00 90.99,368.00 90.99,368.00
             90.99,368.00 107.00,385.00 107.00,385.00
             107.00,385.00 139.00,418.00 139.00,418.00
             139.00,418.00 124.09,417.42 124.09,417.42
             124.09,417.42 114.96,408.99 114.96,408.99
             114.96,408.99 97.00,391.00 97.00,391.00
             97.00,391.00 26.42,320.17 26.42,320.17
             26.42,320.17 9.96,303.00 9.96,303.00
             9.96,303.00 0.56,291.00 0.56,291.00
             0.56,291.00 0.00,276.00 0.00,276.00 Z
           M 447.84,280.00
           C 449.50,283.78 449.62,293.36 447.84,296.96
             446.16,299.81 442.40,302.73 440.00,305.04
             440.00,305.04 424.00,321.00 424.00,321.00
             424.00,321.00 375.83,369.91 375.83,369.91
             375.83,369.91 368.00,377.04 368.00,377.04
             368.00,377.04 355.00,390.00 355.00,390.00
             355.00,390.00 337.00,409.00 337.00,409.00
             334.44,411.57 330.32,416.18 327.00,417.40
             324.43,418.35 314.34,418.00 311.00,418.00
             311.00,418.00 328.00,400.00 328.00,400.00
             328.00,400.00 357.00,371.00 357.00,371.00
             357.00,371.00 447.84,280.00 447.84,280.00 Z
           M 158.51,307.03
           C 167.58,303.70 167.93,316.04 168.00,322.00
             168.00,322.00 168.00,396.00 168.00,396.00
             167.99,401.12 167.53,408.36 160.06,406.67
             155.07,405.54 155.05,399.06 155.00,395.00
             155.00,395.00 155.00,332.00 155.00,332.00
             155.00,324.96 153.73,312.47 158.51,307.03 Z
           M 190.28,308.03
           C 199.67,304.87 198.99,316.89 199.00,323.00
             199.00,323.00 200.00,378.00 200.00,378.00
             199.99,383.50 200.30,387.89 193.02,386.85
             183.79,385.54 187.92,371.24 188.00,365.00
             188.00,365.00 188.00,331.00 188.00,331.00
             187.96,323.71 184.34,313.72 190.28,308.03 Z
           M 231.00,307.00
           C 231.00,307.00 232.00,323.00 232.00,323.00
             232.00,323.00 232.00,342.00 232.00,342.00
             232.00,342.00 232.00,356.00 232.00,356.00
             231.97,358.53 231.75,363.52 230.49,365.69
             228.95,368.33 223.98,368.78 222.01,366.40
             220.39,364.45 220.03,357.60 220.00,355.00
             220.00,355.00 220.00,320.00 220.00,320.00
             220.04,317.20 220.24,311.76 221.98,309.51
             223.99,306.92 228.05,307.07 231.00,307.00 Z
           M 256.22,309.07
           C 264.70,306.88 263.99,319.44 264.00,325.00
             264.00,325.00 264.00,373.00 264.00,373.00
             263.99,376.29 263.85,384.05 261.99,386.63
             260.06,389.43 256.07,389.21 254.16,386.63
             252.40,384.13 252.04,378.00 252.00,375.00
             252.00,375.00 252.00,323.00 252.00,323.00
             252.03,317.63 251.96,312.85 256.22,309.07 Z
           M 287.27,309.03
           C 293.58,306.88 294.06,310.74 294.71,316.00
             294.71,316.00 295.86,342.00 295.86,342.00
             295.86,342.00 295.86,355.00 295.86,355.00
             295.86,355.00 295.86,394.00 295.86,394.00
             295.99,397.31 296.14,402.97 294.07,405.69
             291.66,408.84 287.11,407.93 285.17,404.77
             283.78,402.50 284.00,398.63 284.00,396.00
             284.00,396.00 284.00,333.00 284.00,333.00
             284.00,326.14 282.12,313.98 287.27,309.03 Z
           M 195.00,418.00
           C 197.35,408.49 208.73,399.09 216.00,392.87
             219.41,389.96 223.08,386.29 228.00,387.45
             231.75,388.33 235.33,392.34 238.00,395.00
             242.62,399.60 255.58,412.89 258.00,418.00
             254.09,418.00 245.70,418.85 242.74,416.43
             238.51,412.95 231.89,402.02 226.00,402.02
             219.84,402.02 213.86,412.95 209.49,416.40
             206.45,418.80 198.89,418.00 195.00,418.00 Z" />
</svg>
