<?xml version="1.0" encoding="UTF-8" standalone="no"?>
<!DOCTYPE svg PUBLIC "-//W3C//DTD SVG 20010904//EN"
              "http://www.w3.org/TR/2001/REC-SVG-20010904/DTD/svg10.dtd">

<svg xmlns="http://www.w3.org/2000/svg"
     width="0.926667in" height="0.926667in"
     viewBox="0 0 278 278">
  <path id="Selection"
        fill="none" stroke="black" stroke-width="1"
        d="M 130.00,0.42
           C 140.40,-0.84 161.45,1.82 172.00,4.00
             187.11,7.14 202.32,13.27 215.00,22.02
             246.03,43.45 267.16,78.73 272.57,116.00
             274.14,126.77 274.02,134.30 274.00,145.00
             273.97,162.93 269.19,179.79 261.77,196.00
             247.91,226.28 227.97,247.86 198.00,262.75
             174.90,274.23 158.54,277.30 133.00,277.00
             81.85,276.40 28.78,233.72 11.06,187.00
             2.00,163.10 1.49,122.35 9.02,98.00
             18.51,67.35 46.69,31.54 75.00,16.49
             92.08,7.41 111.05,3.17 130.00,0.42 Z
           M 131.00,14.28
           C 124.39,15.26 118.11,15.94 112.00,18.99
             104.09,22.95 99.73,28.37 94.25,35.00
             79.73,52.58 76.93,61.75 75.96,84.00
             75.96,84.00 75.32,93.00 75.32,93.00
             76.08,103.12 76.44,112.26 79.86,122.00
             91.20,154.19 123.87,182.59 159.00,183.00
             159.00,183.00 168.00,183.00 168.00,183.00
             202.42,182.95 234.87,158.21 245.92,126.00
             250.53,112.56 250.02,106.67 250.00,93.00
             249.97,74.84 240.53,60.40 228.00,48.00
             206.92,27.14 178.87,17.72 150.00,14.83
             143.14,14.15 137.98,13.64 131.00,14.28 Z
           M 76.00,32.00
           C 45.36,49.20 24.19,83.79 18.43,118.00
             16.54,129.25 16.87,140.62 17.00,152.00
             17.12,161.79 20.58,176.81 24.06,186.00
             33.14,209.95 51.90,230.87 73.00,245.00
             88.35,255.28 107.29,262.78 126.00,263.00
             126.00,263.00 147.00,263.00 147.00,263.00
             168.87,262.78 187.98,255.48 206.00,243.33
             222.31,232.34 235.40,217.04 245.00,200.00
             253.58,184.76 257.45,167.22 259.17,150.00
             259.48,146.88 260.05,145.34 259.82,142.00
             259.82,142.00 259.00,133.00 259.00,133.00
             254.83,135.50 253.92,138.89 251.69,143.00
             248.40,149.07 245.66,153.56 241.33,159.00
             230.00,173.26 213.08,184.74 196.00,190.95
             146.28,209.02 91.41,177.06 70.31,131.00
             63.51,116.17 61.82,101.12 62.00,85.00
             62.26,63.21 74.80,45.34 76.00,32.00 Z
           M 139.00,35.43
           C 172.52,31.39 185.35,80.12 154.00,92.54
             149.46,94.34 144.88,95.17 140.00,94.96
             122.78,94.21 111.62,78.31 112.01,62.00
             112.40,46.05 124.57,37.83 139.00,35.43 Z
           M 140.00,47.90
           C 120.64,51.87 119.65,80.42 140.00,80.98
             143.46,81.08 146.78,81.09 149.99,79.59
             159.95,74.92 161.89,61.06 154.61,53.21
             150.88,49.18 145.27,47.92 140.00,47.90 Z
           M 210.00,91.00
           C 210.01,88.02 209.67,80.55 213.23,79.34
             218.19,77.64 218.94,88.23 219.00,91.00
             222.70,91.49 230.98,91.66 232.04,96.06
             232.42,97.67 231.76,98.97 230.55,99.99
             227.81,102.33 223.86,101.40 221.58,103.60
             219.38,105.72 218.99,112.80 214.95,112.80
             211.42,112.80 210.84,107.37 207.73,104.65
             204.91,102.19 199.71,101.37 197.79,98.61
             193.23,92.01 206.59,91.28 210.00,91.00 Z
           M 174.00,126.00
           C 174.00,122.09 174.04,113.61 175.72,110.23
             177.24,107.18 180.90,106.44 183.02,109.32
             185.68,112.94 184.23,120.99 186.02,123.69
             188.76,127.79 203.27,124.81 201.63,133.95
             200.49,140.31 190.67,138.15 186.85,143.27
             183.78,147.39 186.15,158.05 179.08,156.51
             172.61,155.11 175.38,146.06 170.58,141.65
             166.93,138.28 160.64,138.93 157.74,135.43
             155.17,132.33 156.88,129.23 160.06,127.57
             163.84,125.59 169.77,126.00 174.00,126.00 Z
           M 107.06,109.76
           C 116.39,108.17 117.33,118.30 111.87,120.38
             106.26,122.52 98.46,114.93 107.06,109.76 Z
           M 39.23,137.74
           C 42.20,136.96 45.95,136.49 48.49,138.74
             51.96,141.81 51.34,147.10 46.94,148.99
             38.81,152.49 31.78,143.11 39.23,137.74 Z
           M 45.06,163.03
           C 55.48,159.82 57.51,172.84 48.99,174.67
             43.02,175.95 37.44,168.96 45.06,163.03 Z
           M 80.00,197.91
           C 90.08,199.05 87.83,211.32 80.98,212.46
             73.12,213.78 68.88,201.04 80.00,197.91 Z
           M 198.13,207.06
           C 206.44,204.97 210.74,214.34 204.85,217.69
             198.25,221.44 190.07,213.67 198.13,207.06 Z
           M 135.21,218.88
           C 137.73,218.09 140.36,217.57 142.78,218.88
             148.05,222.19 147.38,230.18 141.96,232.79
             134.73,236.25 126.09,224.96 135.21,218.88 Z" />
</svg>
