<?xml version="1.0" encoding="UTF-8" standalone="no"?>
<!DOCTYPE svg PUBLIC "-//W3C//DTD SVG 20010904//EN"
              "http://www.w3.org/TR/2001/REC-SVG-20010904/DTD/svg10.dtd">

<svg xmlns="http://www.w3.org/2000/svg"
     width="3.41333in" height="3.41333in"
     viewBox="0 0 1024 1024">
  <path id="Selection"
        fill="none" stroke="black" stroke-width="1"
        d="M 0.00,0.00
           C 0.00,0.00 1024.00,0.00 1024.00,0.00
             1024.00,0.00 1024.00,1024.00 1024.00,1024.00
             1024.00,1024.00 0.00,1024.00 0.00,1024.00
             0.00,1024.00 0.00,0.00 0.00,0.00 Z
           M 817.00,514.00
           C 813.28,505.76 795.93,488.09 789.01,481.00
             789.01,481.00 771.57,460.00 771.57,460.00
             771.57,460.00 759.17,447.00 759.17,447.00
             759.17,447.00 734.00,420.04 734.00,420.04
             734.00,420.04 716.00,403.96 716.00,403.96
             716.00,403.96 670.00,358.00 670.00,358.00
             670.00,358.00 637.17,325.09 637.17,325.09
             620.94,308.15 604.76,290.96 587.00,275.58
             587.00,275.58 566.00,256.17 566.00,256.17
             566.00,256.17 549.00,241.87 549.00,241.87
             549.00,241.87 533.00,227.58 533.00,227.58
             533.00,227.58 520.00,216.08 520.00,216.08
             518.23,214.46 514.33,210.84 512.00,210.41
             509.18,209.89 506.98,212.24 505.00,213.87
             505.00,213.87 492.00,224.58 492.00,224.58
             492.00,224.58 467.00,246.84 467.00,246.84
             467.00,246.84 455.00,256.43 455.00,256.43
             455.00,256.43 439.00,270.58 439.00,270.58
             439.00,270.58 420.00,290.00 420.00,290.00
             420.00,290.00 375.00,335.00 375.00,335.00
             375.00,335.00 362.00,347.01 362.00,347.01
             362.00,347.01 344.72,364.72 344.72,364.72
             344.72,364.72 311.04,397.91 311.04,397.91
             311.04,397.91 300.00,408.01 300.00,408.01
             300.00,408.01 274.04,434.00 274.04,434.00
             274.04,434.00 264.99,444.00 264.99,444.00
             264.99,444.00 249.44,460.00 249.44,460.00
             249.44,460.00 223.91,491.04 223.91,491.04
             223.91,491.04 212.27,503.91 212.27,503.91
             210.93,505.41 208.10,508.06 207.90,510.09
             207.54,513.58 217.82,523.92 220.41,527.00
             220.41,527.00 249.17,560.00 249.17,560.00
             249.17,560.00 260.72,572.00 260.72,572.00
             260.72,572.00 290.96,604.00 290.96,604.00
             290.96,604.00 299.04,613.00 299.04,613.00
             299.04,613.00 348.00,662.00 348.00,662.00
             348.00,662.00 395.99,710.00 395.99,710.00
             395.99,710.00 406.01,721.00 406.01,721.00
             406.01,721.00 441.00,755.01 441.00,755.01
             441.00,755.01 459.00,771.17 459.00,771.17
             459.00,771.17 493.58,803.87 493.58,803.87
             498.18,808.46 506.83,818.82 514.00,816.13
             517.69,814.75 522.05,809.83 525.00,807.09
             525.00,807.09 544.00,789.00 544.00,789.00
             544.00,789.00 595.91,739.83 595.91,739.83
             595.91,739.83 603.04,732.01 603.04,732.01
             603.04,732.01 612.00,723.91 612.00,723.91
             612.00,723.91 626.00,710.00 626.00,710.00
             626.00,710.00 642.01,693.00 642.01,693.00
             642.01,693.00 661.00,675.00 661.00,675.00
             661.00,675.00 673.04,662.00 673.04,662.00
             673.04,662.00 699.00,636.00 699.00,636.00
             699.00,636.00 718.00,617.04 718.00,617.04
             718.00,617.04 730.91,605.00 730.91,605.00
             730.91,605.00 775.72,558.00 775.72,558.00
             785.03,547.42 807.13,521.47 817.00,514.00 Z
           M 276.00,508.00
           C 276.00,508.00 256.47,527.01 256.47,527.01
             254.49,529.43 251.28,533.46 255.19,535.81
             258.43,537.76 262.27,535.62 265.00,533.78
             272.05,529.02 276.57,521.88 283.00,516.44
             285.24,514.54 290.52,511.12 290.52,507.96
             290.52,504.99 286.00,501.01 284.00,499.00
             284.00,499.00 265.00,480.00 265.00,480.00
             262.44,477.44 256.81,473.06 258.16,469.00
             259.80,464.09 271.96,453.83 276.00,449.96
             276.00,449.96 317.82,408.81 317.82,408.81
             317.82,408.81 335.42,391.42 335.42,391.42
             335.42,391.42 380.00,347.00 380.00,347.00
             380.00,347.00 432.00,296.04 432.00,296.04
             432.00,296.04 449.00,280.00 449.00,280.00
             449.00,280.00 477.00,253.91 477.00,253.91
             477.00,253.91 492.83,238.42 492.83,238.42
             495.94,235.45 506.73,223.64 510.00,222.88
             514.45,221.86 521.84,231.83 525.00,235.00
             525.00,235.00 545.00,253.17 545.00,253.17
             545.00,253.17 568.00,274.83 568.00,274.83
             568.00,274.83 633.00,339.00 633.00,339.00
             633.00,339.00 715.00,420.00 715.00,420.00
             715.00,420.00 727.00,431.91 727.00,431.91
             727.00,431.91 734.91,439.04 734.91,439.04
             734.91,439.04 751.00,456.00 751.00,456.00
             753.62,458.62 762.62,466.56 762.66,470.00
             762.71,473.09 757.14,477.86 755.00,480.00
             755.00,480.00 737.00,497.83 737.00,497.83
             734.48,500.13 729.86,503.55 729.08,507.00
             728.12,511.24 733.31,514.57 736.00,517.09
             736.00,517.09 758.00,537.25 758.00,537.25
             761.32,540.03 767.69,543.97 766.21,549.00
             765.10,552.75 755.19,561.81 752.00,565.00
             752.00,565.00 718.00,600.00 718.00,600.00
             718.00,600.00 592.00,726.00 592.00,726.00
             592.00,726.00 544.00,772.99 544.00,772.99
             544.00,772.99 532.17,783.92 532.17,783.92
             532.17,783.92 517.83,798.98 517.83,798.98
             515.82,801.11 513.20,803.81 510.00,803.54
             504.61,803.09 496.72,792.83 492.99,789.00
             492.99,789.00 452.00,749.04 452.00,749.04
             452.00,749.04 443.00,740.96 443.00,740.96
             443.00,740.96 388.01,686.00 388.01,686.00
             388.01,686.00 354.72,651.28 354.72,651.28
             354.72,651.28 287.09,582.00 287.09,582.00
             287.09,582.00 278.99,573.00 278.99,573.00
             278.99,573.00 260.18,554.00 260.18,554.00
             254.98,548.08 254.17,543.90 247.98,538.28
             239.81,530.87 236.41,528.75 228.72,520.00
             227.06,518.12 222.94,514.18 222.30,512.00
             221.40,508.93 224.21,506.07 226.09,504.00
             226.09,504.00 242.91,487.99 242.91,487.99
             245.02,485.82 247.54,481.98 251.01,482.74
             253.88,483.37 257.79,487.82 259.72,490.00
             259.72,490.00 276.00,508.00 276.00,508.00 Z
           M 265.00,285.00
           C 272.87,284.73 275.40,280.80 280.89,275.42
             282.53,273.82 285.97,270.31 283.36,267.87
             281.38,266.29 275.46,267.25 273.00,267.87
             273.00,267.87 250.00,267.87 250.00,267.87
             250.00,267.87 251.00,304.00 251.00,304.00
             258.65,300.06 267.65,294.75 265.00,285.00 Z
           M 772.00,268.00
           C 772.00,268.00 747.00,267.42 747.00,267.42
             744.74,267.13 739.56,266.34 738.08,268.60
             736.46,271.07 739.51,274.33 741.06,276.00
             746.16,281.52 749.53,284.92 757.00,282.00
             757.00,282.00 757.64,291.00 757.64,291.00
             759.22,295.81 767.51,301.92 772.00,304.00
             772.00,304.00 772.00,268.00 772.00,268.00 Z
           M 310.00,285.29
           C 292.40,288.20 280.45,295.83 275.76,314.00
             270.44,334.63 283.40,355.45 304.00,360.35
             307.38,361.15 310.50,361.88 314.00,361.53
             320.56,360.88 327.51,358.55 333.00,354.90
             353.43,341.33 357.95,313.59 339.99,296.04
             335.26,291.42 330.44,288.30 324.00,286.67
             318.81,285.35 315.35,284.80 310.00,285.29 Z
           M 703.83,285.43
           C 694.59,286.92 684.60,290.62 678.52,298.04
             673.28,304.43 670.77,312.84 670.18,321.00
             668.92,338.43 684.22,354.95 700.00,359.97
             704.61,361.44 708.12,362.29 713.00,361.71
             719.27,360.97 723.52,359.80 729.00,356.55
             733.91,353.63 736.43,351.62 739.84,347.00
             758.86,321.23 738.92,282.26 703.83,285.43 Z
           M 311.00,298.31
           C 312.91,298.21 314.02,298.02 316.00,298.31
             318.52,298.40 322.72,299.48 325.00,300.55
             347.65,311.20 338.47,349.89 310.00,347.90
             293.09,346.72 284.11,327.76 290.53,313.00
             294.52,303.82 301.72,300.17 311.00,298.31 Z
           M 708.00,298.71
           C 713.41,298.87 717.28,299.62 722.00,302.48
             734.31,309.94 737.13,329.09 727.67,339.96
             722.40,346.01 714.83,348.30 707.00,347.96
             687.28,347.09 677.40,323.24 688.79,308.04
             693.55,301.68 700.36,299.25 708.00,298.71 Z
           M 313.02,315.62
           C 310.02,316.81 307.40,318.42 306.99,322.01
             306.48,326.54 311.71,330.45 315.96,329.44
             324.00,327.53 323.53,315.62 313.02,315.62 Z
           M 707.01,315.65
           C 704.05,317.22 701.45,319.23 701.45,323.00
             701.45,327.50 706.51,331.75 710.91,330.10
             718.39,327.29 717.16,314.75 707.01,315.65 Z
           M 497.00,317.29
           C 476.63,320.40 451.79,327.73 435.00,339.92
             410.83,357.47 386.80,388.93 378.74,418.00
             376.54,425.94 374.10,447.63 374.00,456.00
             373.86,468.27 376.27,489.54 380.44,501.00
             393.17,536.01 421.45,564.45 454.00,581.52
             470.50,590.16 489.58,593.86 508.00,594.91
             512.29,595.15 514.13,594.35 518.00,593.96
             518.00,593.96 528.00,593.96 528.00,593.96
             535.74,593.06 548.49,588.70 556.00,585.95
             593.00,572.38 619.72,544.96 635.00,509.00
             640.66,495.68 644.98,482.64 644.95,468.00
             644.95,468.00 644.95,463.00 644.95,463.00
             644.95,463.00 644.95,439.00 644.95,439.00
             641.95,411.74 630.15,382.52 611.83,362.00
             601.95,350.94 585.32,336.63 572.00,329.99
             572.00,329.99 558.00,325.00 558.00,325.00
             540.91,318.33 515.27,315.58 497.00,317.29 Z
           M 496.00,332.22
           C 496.00,332.22 516.00,332.22 516.00,332.22
             543.07,332.32 572.22,343.52 593.00,360.61
             608.32,373.22 620.97,391.66 621.00,412.00
             621.00,412.00 621.00,419.00 621.00,419.00
             620.93,424.75 619.79,430.44 618.37,436.00
             608.51,474.54 572.35,500.46 533.00,500.00
             527.46,499.93 524.32,499.06 519.00,498.00
             495.63,493.32 480.60,482.58 465.81,464.00
             460.27,457.05 454.70,448.40 451.70,440.00
             446.70,426.02 446.83,413.55 447.00,399.00
             447.12,388.95 451.31,373.57 456.48,365.00
             456.48,365.00 463.26,356.00 463.26,356.00
             472.81,343.45 479.88,335.46 496.00,332.22 Z
           M 629.00,450.00
           C 632.19,461.23 628.22,481.78 625.00,493.00
             611.11,541.36 565.07,579.92 514.00,580.00
             496.24,580.03 482.98,579.43 466.00,572.94
             448.61,566.29 433.24,554.73 420.83,541.00
             396.60,514.20 387.68,491.03 388.00,455.00
             388.14,440.18 392.05,421.71 397.60,408.00
             404.65,390.60 416.98,374.20 431.00,361.85
             435.90,357.53 441.01,352.70 447.00,350.00
             447.00,350.00 435.43,382.00 435.43,382.00
             430.70,398.75 431.78,422.43 437.03,439.00
             441.54,453.25 449.04,464.91 458.95,476.00
             480.66,500.28 508.17,514.37 541.00,514.00
             553.48,513.85 570.03,508.45 581.00,502.68
             596.34,494.61 609.05,483.46 618.64,469.00
             618.64,469.00 629.00,450.00 629.00,450.00 Z
           M 507.00,352.16
           C 493.00,355.47 481.11,366.65 482.32,382.00
             483.67,399.02 497.88,415.24 516.00,412.41
             526.10,410.83 536.22,405.71 540.65,396.00
             549.13,377.39 536.70,352.28 516.00,352.16
             516.00,352.16 507.00,352.16 507.00,352.16 Z
           M 511.00,365.51
           C 532.69,364.08 536.81,393.94 516.00,397.67
             493.65,401.69 488.64,370.68 511.00,365.51 Z
           M 591.00,408.00
           C 590.57,404.83 589.19,391.95 583.30,395.13
             580.61,396.58 580.24,405.07 580.00,408.00
             576.46,408.01 567.87,407.67 566.74,412.14
             566.31,413.85 567.14,415.39 568.32,416.57
             571.12,419.39 575.81,419.20 578.69,421.70
             581.73,424.35 580.97,428.32 583.51,430.31
             589.48,434.98 591.53,423.33 592.00,420.00
             594.30,419.81 598.88,419.38 600.89,418.44
             604.79,416.63 605.58,412.48 601.85,409.93
             599.03,408.01 594.30,408.03 591.00,408.00 Z
           M 557.00,442.00
           C 556.94,439.43 555.96,428.01 555.11,426.19
             553.20,421.92 548.19,422.92 546.17,426.19
             544.93,428.26 544.68,439.18 544.00,443.00
             536.17,441.17 521.52,444.28 527.86,452.70
             531.18,457.11 538.35,454.60 542.27,459.39
             545.85,463.77 543.30,476.91 552.87,474.53
             558.54,473.12 553.89,464.27 558.56,459.56
             561.82,456.27 569.93,456.70 572.40,454.26
             574.76,451.93 574.33,447.21 571.71,445.28
             568.75,443.09 560.72,442.17 557.00,442.00 Z
           M 339.10,425.43
           C 335.72,427.01 332.17,431.77 335.74,435.05
             337.93,437.06 345.10,438.25 347.98,437.43
             354.15,435.67 353.77,429.22 350.69,426.98
             347.87,424.94 342.38,424.94 339.10,425.43 Z
           M 680.00,425.29
           C 677.55,425.64 672.27,425.88 670.60,427.60
             669.73,428.50 669.32,429.71 669.46,430.96
             669.96,435.51 675.71,435.12 679.00,434.71
             681.10,434.46 684.90,433.96 686.40,432.41
             687.29,431.48 687.67,430.31 687.63,429.03
             687.49,424.53 683.18,425.02 680.00,425.29 Z
           M 333.00,466.00
           C 331.35,461.89 330.26,462.08 326.00,462.00
             326.00,462.00 315.00,462.00 315.00,462.00
             307.36,461.96 303.87,460.09 296.00,462.00
             296.00,462.00 297.00,464.00 297.00,464.00
             297.00,464.00 295.00,464.00 295.00,464.00
             294.91,466.55 293.76,469.42 295.65,471.61
             298.05,474.37 302.67,473.99 306.00,474.00
             313.50,474.01 328.26,475.59 334.00,471.00
             338.52,475.07 341.17,474.95 347.00,475.00
             347.00,475.00 346.00,473.00 346.00,473.00
             346.00,473.00 347.00,472.00 347.00,472.00
             353.39,470.63 352.05,464.12 348.72,462.01
             345.49,459.98 337.81,461.69 334.00,462.01
             334.00,462.01 333.00,466.00 333.00,466.00 Z
           M 689.00,473.00
           C 689.00,473.00 702.00,473.99 702.00,473.99
             702.00,473.99 711.00,473.46 711.00,473.46
             713.93,473.70 718.11,474.55 720.89,473.46
             725.15,471.64 726.13,465.50 722.69,462.60
             719.03,459.52 703.91,461.33 699.00,461.83
             696.49,462.09 693.52,461.78 691.51,463.60
             689.02,465.85 689.07,469.92 689.00,473.00 Z
           M 295.00,465.00
           C 295.00,465.00 294.00,465.00 294.00,465.00
             294.00,465.00 295.00,466.00 295.00,466.00
             295.00,466.00 295.00,465.00 295.00,465.00 Z
           M 348.00,473.00
           C 348.00,473.00 347.00,473.00 347.00,473.00
             347.00,473.00 348.00,474.00 348.00,474.00
             348.00,474.00 348.00,473.00 348.00,473.00 Z
           M 744.00,509.00
           C 747.56,501.47 757.44,493.88 764.00,488.72
             766.71,486.58 770.22,482.92 774.00,483.87
             777.17,484.67 784.83,493.45 788.01,496.29
             791.07,499.02 800.16,506.97 800.26,511.00
             800.33,514.14 796.27,517.73 794.28,520.00
             788.13,527.04 781.64,535.06 773.00,539.00
             770.00,532.67 766.72,531.54 762.09,526.91
             755.71,520.53 751.50,514.68 744.00,509.00 Z
           M 769.01,503.03
           C 762.72,504.39 764.71,513.34 768.11,514.26
             771.11,515.06 773.43,511.64 773.50,509.00
             773.58,505.63 771.74,504.19 769.01,503.03 Z
           M 253.04,503.49
           C 244.82,506.88 248.48,514.95 254.96,513.64
             260.63,512.50 262.05,503.44 253.04,503.49 Z
           M 367.79,528.41
           C 363.25,528.31 359.57,531.53 356.00,534.16
             356.00,534.16 346.00,542.10 346.00,542.10
             346.00,542.10 330.11,553.30 330.11,553.30
             326.87,556.40 325.07,559.80 327.89,563.93
             328.66,565.05 329.75,566.19 331.09,566.59
             334.58,567.63 341.19,561.74 344.00,559.71
             344.00,559.71 362.00,545.88 362.00,545.88
             364.18,544.28 369.92,540.61 371.22,538.68
             373.74,534.93 370.94,530.57 367.79,528.41 Z
           M 652.22,527.81
           C 648.25,530.18 647.05,535.02 650.32,538.67
             652.44,541.04 659.85,544.86 663.00,546.81
             663.00,546.81 683.00,560.88 683.00,560.88
             685.81,562.95 691.41,567.77 694.96,567.46
             696.67,567.32 697.99,566.34 698.81,564.86
             701.25,560.43 695.93,556.69 693.00,554.17
             693.00,554.17 667.00,535.37 667.00,535.37
             662.71,532.23 657.71,527.92 652.22,527.81 Z
           M 393.96,562.02
           C 388.66,562.88 384.71,567.33 381.00,571.00
             381.00,571.00 360.00,590.92 360.00,590.92
             356.90,593.52 350.57,598.19 351.99,602.91
             354.16,610.14 361.11,606.96 365.00,603.70
             365.00,603.70 386.00,583.00 386.00,583.00
             386.00,583.00 396.69,572.91 396.69,572.91
             400.15,568.57 398.97,564.11 393.96,562.02 Z
           M 626.21,561.74
           C 619.97,565.54 623.06,571.58 627.07,575.83
             632.17,581.25 653.86,602.03 659.00,605.11
             665.08,608.74 669.09,603.43 667.83,600.17
             667.00,598.01 660.05,592.35 658.00,590.58
             653.07,586.31 642.70,575.93 638.42,571.00
             635.08,567.15 631.62,561.96 626.21,561.74 Z
           M 443.43,610.61
           C 439.58,613.72 440.01,619.41 440.00,624.00
             440.00,624.00 440.00,692.00 440.00,692.00
             440.00,698.44 436.98,714.89 448.00,712.65
             457.02,710.81 453.03,698.40 453.00,692.00
             453.00,692.00 453.00,621.00 453.00,621.00
             452.91,614.22 451.50,609.41 443.43,610.61 Z
           M 475.15,611.60
           C 474.61,611.97 473.94,611.94 473.02,613.31
             471.38,615.79 472.00,627.47 472.04,631.00
             472.04,631.00 472.04,646.00 472.04,646.00
             472.35,649.88 473.15,651.69 472.91,656.00
             472.91,656.00 472.00,685.00 472.00,685.00
             472.12,691.46 474.21,693.58 480.98,692.89
             488.73,692.10 485.03,682.31 485.00,677.00
             485.00,677.00 485.00,654.00 485.00,654.00
             485.00,654.00 484.00,639.00 484.00,639.00
             484.00,639.00 484.00,620.00 484.00,620.00
             483.95,613.15 482.88,609.95 475.15,611.60 Z
           M 516.00,612.00
           C 513.41,612.00 507.73,611.44 506.02,613.60
             504.46,615.58 505.00,625.10 505.00,628.00
             505.00,628.00 505.00,665.00 505.00,665.00
             505.00,666.99 504.77,670.81 506.02,672.40
             507.73,674.56 514.27,674.56 515.98,672.40
             517.04,671.06 516.97,668.62 517.00,667.00
             517.00,667.00 517.00,645.00 517.00,645.00
             517.00,645.00 517.00,623.00 517.00,623.00
             516.99,617.39 516.98,617.49 516.00,612.00 Z
           M 542.05,612.54
           C 536.84,614.66 537.06,618.96 537.00,624.00
             537.00,624.00 537.00,686.00 537.00,686.00
             537.09,690.86 538.79,695.95 544.94,694.53
             549.58,693.45 548.99,688.70 549.00,685.00
             549.00,685.00 549.00,623.00 549.00,623.00
             548.97,617.31 549.03,612.73 542.05,612.54 Z
           M 573.05,612.43
           C 571.66,613.07 571.04,612.97 570.02,614.43
             569.02,615.88 568.83,619.19 568.58,621.00
             567.66,627.59 567.97,634.36 568.00,641.00
             568.00,641.00 569.00,657.00 569.00,657.00
             569.00,657.00 569.00,697.00 569.00,697.00
             568.93,702.27 566.39,709.36 572.13,712.54
             573.56,713.33 575.35,713.76 576.96,713.30
             582.77,711.62 581.01,703.60 580.99,699.00
             580.99,699.00 580.99,641.00 580.99,641.00
             580.99,641.00 580.00,624.00 580.00,624.00
             579.97,617.58 581.63,611.34 573.05,612.43 Z
           M 312.00,665.32
           C 298.93,667.00 291.15,668.33 282.79,680.00
             276.86,688.27 273.56,699.88 275.47,710.00
             278.48,725.96 295.44,741.80 312.00,742.00
             319.42,742.08 323.08,741.46 330.00,738.54
             355.80,727.63 358.77,693.86 339.71,675.44
             331.62,667.62 323.03,665.08 312.00,665.32 Z
           M 703.00,665.29
           C 695.93,666.46 690.80,668.04 685.00,672.53
             652.84,697.42 676.63,747.48 714.00,742.09
             720.79,741.11 729.02,736.50 734.00,731.91
             737.75,728.44 741.32,724.60 743.62,720.00
             751.86,703.58 745.75,682.36 731.00,671.79
             722.28,665.54 713.41,664.30 703.00,665.29 Z
           M 313.00,678.52
           C 320.14,678.38 327.83,680.48 332.61,686.09
             344.99,700.61 337.04,726.28 317.00,727.91
             289.36,730.15 279.84,698.45 299.00,683.39
             303.46,679.89 307.58,679.22 313.00,678.52 Z
           M 705.72,678.56
           C 713.70,677.69 722.28,679.76 727.66,686.04
             731.68,690.74 732.93,695.98 733.00,702.00
             733.13,715.04 726.73,725.67 713.00,727.70
             705.69,728.78 697.80,727.55 692.04,722.66
             680.51,712.88 681.35,692.89 693.04,683.53
             697.19,680.21 700.66,679.41 705.72,678.56 Z
           M 510.00,690.82
           C 503.31,693.74 489.32,708.13 484.18,714.00
             481.32,717.27 478.33,721.39 479.45,726.00
             480.39,729.91 493.08,741.96 496.58,746.00
             498.78,748.54 504.57,754.33 505.65,757.00
             506.56,759.88 505.07,762.78 505.65,764.67
             506.32,766.17 507.57,766.50 509.04,766.28
             515.77,765.28 514.33,758.16 521.04,751.00
             521.04,751.00 537.96,734.00 537.96,734.00
             539.95,731.92 543.80,727.90 544.21,725.00
             544.80,720.93 539.98,717.32 537.42,714.72
             537.42,714.72 520.00,696.92 520.00,696.92
             516.46,693.65 515.01,691.15 510.00,690.82 Z
           M 313.02,696.47
           C 302.18,700.78 310.02,710.64 315.98,709.63
             323.27,708.40 324.61,695.93 313.02,696.47 Z
           M 706.02,696.43
           C 695.80,700.76 704.04,711.88 709.98,710.29
             717.35,708.34 718.48,694.95 706.02,696.43 Z
           M 509.00,707.08
           C 515.44,705.87 519.70,713.48 523.83,717.58
             525.62,719.36 528.53,722.10 528.10,724.91
             527.83,726.71 526.20,728.08 524.94,729.25
             524.94,729.25 512.00,740.18 512.00,740.18
             507.32,742.28 500.01,732.40 497.34,729.00
             496.25,727.61 494.92,725.83 494.82,724.00
             494.57,719.35 505.26,709.47 509.00,707.08 Z
           M 254.00,723.00
           C 252.58,726.59 252.97,728.36 254.00,732.00
             251.56,732.87 252.03,734.55 252.01,737.00
             252.01,737.00 252.01,753.00 252.01,753.00
             252.04,755.13 251.95,757.65 253.60,759.26
             255.71,761.32 260.23,761.00 263.00,761.00
             268.08,761.01 277.59,761.75 282.00,760.00
             282.00,760.00 274.00,759.00 274.00,759.00
             274.00,759.00 282.00,758.00 282.00,758.00
             282.00,758.00 278.00,753.00 278.00,753.00
             278.93,748.15 276.72,746.27 272.00,746.00
             271.25,742.21 270.79,741.75 267.00,741.00
             266.28,737.79 266.11,738.02 263.00,737.00
             263.00,737.00 260.00,730.00 260.00,730.00
             260.00,730.00 258.00,732.00 258.00,732.00
             258.00,732.00 259.00,729.00 259.00,729.00
             259.00,729.00 254.00,727.00 254.00,727.00
             254.00,727.00 256.00,727.00 256.00,727.00
             256.00,727.00 256.00,726.00 256.00,726.00
             256.00,726.00 254.00,723.00 254.00,723.00 Z
           M 770.00,723.00
           C 770.00,723.00 745.00,746.28 745.00,746.28
             742.51,748.49 736.84,753.14 737.74,756.89
             738.42,759.71 741.50,760.61 744.00,760.94
             744.00,760.94 763.00,760.94 763.00,760.94
             765.16,760.97 768.50,761.11 770.01,759.26
             771.10,757.93 771.80,750.90 771.83,749.00
             771.93,740.29 772.59,731.45 770.00,723.00 Z
           M 280.00,750.00
           C 280.00,750.00 279.00,750.00 279.00,750.00
             279.00,750.00 280.00,751.00 280.00,751.00
             280.00,751.00 280.00,750.00 280.00,750.00 Z
           M 284.00,755.00
           C 284.00,755.00 283.00,755.00 283.00,755.00
             283.00,755.00 284.00,756.00 284.00,756.00
             284.00,756.00 284.00,755.00 284.00,755.00 Z" />
</svg>
