<?xml version="1.0" encoding="UTF-8" standalone="no"?>
<!DOCTYPE svg PUBLIC "-//W3C//DTD SVG 20010904//EN"
              "http://www.w3.org/TR/2001/REC-SVG-20010904/DTD/svg10.dtd">

<svg xmlns="http://www.w3.org/2000/svg"
     width="3.41333in" height="3.41333in"
     viewBox="0 0 1024 1024">
  <path id="Selection #1"
        fill="none" stroke="black" stroke-width="1"
        d="M 817.00,514.00
           C 807.13,521.47 785.03,547.42 775.72,558.00
             775.72,558.00 730.91,605.00 730.91,605.00
             730.91,605.00 718.00,617.04 718.00,617.04
             718.00,617.04 699.00,636.00 699.00,636.00
             699.00,636.00 673.04,662.00 673.04,662.00
             673.04,662.00 661.00,675.00 661.00,675.00
             661.00,675.00 642.01,693.00 642.01,693.00
             642.01,693.00 626.00,710.00 626.00,710.00
             626.00,710.00 612.00,723.91 612.00,723.91
             612.00,723.91 603.04,732.01 603.04,732.01
             603.04,732.01 595.91,739.83 595.91,739.83
             595.91,739.83 544.00,789.00 544.00,789.00
             544.00,789.00 525.00,807.09 525.00,807.09
             522.05,809.83 517.69,814.75 514.00,816.13
             506.83,818.82 498.18,808.46 493.58,803.87
             493.58,803.87 459.00,771.17 459.00,771.17
             459.00,771.17 441.00,755.01 441.00,755.01
             441.00,755.01 406.01,721.00 406.01,721.00
             406.01,721.00 395.99,710.00 395.99,710.00
             395.99,710.00 348.00,662.00 348.00,662.00
             348.00,662.00 299.04,613.00 299.04,613.00
             299.04,613.00 290.96,604.00 290.96,604.00
             290.96,604.00 260.72,572.00 260.72,572.00
             260.72,572.00 249.17,560.00 249.17,560.00
             249.17,560.00 220.41,527.00 220.41,527.00
             217.82,523.92 207.54,513.58 207.90,510.09
             208.10,508.06 210.93,505.41 212.27,503.91
             212.27,503.91 223.91,491.04 223.91,491.04
             223.91,491.04 249.44,460.00 249.44,460.00
             249.44,460.00 264.99,444.00 264.99,444.00
             264.99,444.00 274.04,434.00 274.04,434.00
             274.04,434.00 300.00,408.01 300.00,408.01
             300.00,408.01 311.04,397.91 311.04,397.91
             311.04,397.91 344.72,364.72 344.72,364.72
             344.72,364.72 362.00,347.01 362.00,347.01
             362.00,347.01 375.00,335.00 375.00,335.00
             375.00,335.00 420.00,290.00 420.00,290.00
             428.34,281.62 429.07,279.19 439.00,270.58
             439.00,270.58 455.00,256.43 455.00,256.43
             455.00,256.43 467.00,246.84 467.00,246.84
             467.00,246.84 492.00,224.58 492.00,224.58
             492.00,224.58 505.00,213.87 505.00,213.87
             506.98,212.24 509.18,209.89 512.00,210.41
             514.33,210.84 518.23,214.46 520.00,216.08
             520.00,216.08 533.00,227.58 533.00,227.58
             533.00,227.58 549.00,241.87 549.00,241.87
             549.00,241.87 566.00,256.17 566.00,256.17
             566.00,256.17 587.00,275.58 587.00,275.58
             604.76,290.96 620.94,308.15 637.17,325.09
             637.17,325.09 670.00,358.00 670.00,358.00
             670.00,358.00 716.00,403.96 716.00,403.96
             716.00,403.96 734.00,420.04 734.00,420.04
             734.00,420.04 759.17,447.00 759.17,447.00
             759.17,447.00 771.57,460.00 771.57,460.00
             771.57,460.00 789.01,481.00 789.01,481.00
             795.93,488.09 813.28,505.76 817.00,514.00 Z
           M 276.00,507.00
           C 276.00,507.00 259.72,490.00 259.72,490.00
             257.79,487.82 253.88,483.37 251.01,482.74
             247.54,481.98 245.02,485.82 242.91,487.99
             242.91,487.99 227.04,503.00 227.04,503.00
             225.24,504.89 221.92,508.18 222.11,511.00
             222.28,513.55 225.27,516.20 226.92,518.00
             233.40,525.11 232.23,524.52 240.00,531.28
             243.09,533.97 249.26,539.13 251.62,542.01
             251.62,542.01 260.18,554.00 260.18,554.00
             260.18,554.00 282.72,577.00 282.72,577.00
             282.72,577.00 329.99,626.00 329.99,626.00
             329.99,626.00 344.01,641.00 344.01,641.00
             344.01,641.00 355.58,652.17 355.58,652.17
             355.58,652.17 416.00,714.00 416.00,714.00
             416.00,714.00 450.00,747.17 450.00,747.17
             450.00,747.17 461.00,757.96 461.00,757.96
             461.00,757.96 491.00,787.00 491.00,787.00
             495.10,791.12 503.79,802.02 509.00,803.36
             514.10,804.67 518.39,798.28 521.28,795.00
             521.28,795.00 549.00,768.00 549.00,768.00
             549.00,768.00 571.00,747.00 571.00,747.00
             571.00,747.00 664.00,654.00 664.00,654.00
             664.00,654.00 725.99,592.00 725.99,592.00
             725.99,592.00 740.00,577.00 740.00,577.00
             740.00,577.00 759.00,558.00 759.00,558.00
             761.37,555.62 766.02,551.44 766.42,548.00
             766.94,543.62 760.99,539.75 758.00,537.25
             758.00,537.25 736.00,517.09 736.00,517.09
             733.60,514.84 728.84,511.59 728.94,508.00
             729.04,504.38 733.54,500.92 736.00,498.72
             736.00,498.72 755.00,480.00 755.00,480.00
             757.43,477.57 763.46,472.77 762.51,469.00
             761.75,465.97 750.80,455.80 748.00,453.00
             748.00,453.00 733.96,438.09 733.96,438.09
             733.96,438.09 711.00,416.00 711.00,416.00
             711.00,416.00 627.00,333.00 627.00,333.00
             627.00,333.00 593.00,299.00 593.00,299.00
             593.00,299.00 569.00,275.72 569.00,275.72
             569.00,275.72 546.00,254.09 546.00,254.09
             546.00,254.09 528.00,238.00 528.00,238.00
             525.27,235.28 514.78,223.36 511.99,222.82
             507.77,222.01 498.43,232.74 495.42,235.84
             495.42,235.84 451.00,278.00 451.00,278.00
             451.00,278.00 432.00,296.04 432.00,296.04
             432.00,296.04 380.00,347.00 380.00,347.00
             380.00,347.00 335.42,391.42 335.42,391.42
             335.42,391.42 317.82,408.81 317.82,408.81
             317.82,408.81 276.00,449.96 276.00,449.96
             271.96,453.83 259.80,464.09 258.16,469.00
             256.81,473.06 262.44,477.44 265.00,480.00
             265.00,480.00 284.00,499.00 284.00,499.00
             286.00,501.01 290.52,504.99 290.52,507.96
             290.52,511.34 283.48,515.91 281.00,518.17
             274.74,523.87 269.96,531.88 262.00,535.56
             256.97,537.88 251.86,535.71 253.79,530.98
             255.43,526.99 260.85,522.69 264.00,519.83
             268.32,515.92 272.61,511.74 276.00,507.00 Z
           M 250.00,267.87
           C 250.00,267.87 273.00,267.87 273.00,267.87
             275.46,267.25 281.38,266.29 283.36,267.87
             285.97,270.31 282.53,273.82 280.89,275.42
             275.40,280.80 272.87,284.73 265.00,285.00
             267.65,294.75 258.65,300.06 251.00,304.00
             251.00,304.00 250.00,267.87 250.00,267.87 Z
           M 757.00,282.00
           C 749.53,284.92 746.16,281.52 741.06,276.00
             739.51,274.33 736.46,271.07 738.08,268.60
             739.56,266.34 744.74,267.13 747.00,267.42
             747.00,267.42 772.00,268.00 772.00,268.00
             772.00,268.00 772.00,304.00 772.00,304.00
             767.51,301.92 759.22,295.81 757.64,291.00
             757.64,291.00 757.00,282.00 757.00,282.00 Z
           M 309.00,285.44
           C 329.49,282.83 350.75,298.69 351.00,320.00
             351.25,341.52 337.39,357.93 316.00,361.24
             310.97,362.02 308.90,361.51 304.00,360.35
             283.55,355.49 271.04,335.50 275.52,315.00
             279.46,296.93 291.78,288.62 309.00,285.44 Z
           M 702.83,285.56
           C 738.09,281.22 759.18,320.80 739.84,347.00
             736.63,351.34 734.57,353.10 730.00,355.94
             724.07,359.62 720.81,360.60 714.00,361.57
             686.48,365.49 656.40,329.57 677.05,300.00
             683.17,291.24 692.74,287.60 702.83,285.56 Z
           M 312.00,298.24
           C 302.59,299.84 295.53,302.94 291.00,312.00
             283.62,326.75 292.73,346.70 310.00,347.90
             338.47,349.89 347.65,311.20 325.00,300.55
             322.72,299.48 318.52,298.40 316.00,298.24
             316.00,298.24 312.00,298.24 312.00,298.24 Z
           M 709.00,298.71
           C 702.90,298.89 698.03,300.05 693.04,303.79
             675.88,316.64 684.04,349.01 710.00,347.96
             724.91,347.36 733.15,337.47 733.00,323.00
             732.94,317.89 732.10,313.33 729.15,309.01
             724.46,302.16 716.97,299.28 709.00,298.71 Z
           M 312.04,315.90
           C 322.68,314.07 324.80,327.34 315.96,329.44
             309.81,330.90 301.38,322.00 312.04,315.90 Z
           M 706.04,316.04
           C 715.79,313.38 718.97,325.67 711.81,329.67
             706.81,332.47 701.45,327.38 701.45,323.00
             701.45,319.59 703.59,317.85 706.04,316.04 Z
           M 496.00,317.43
           C 511.92,315.46 541.04,318.35 556.00,324.20
             556.00,324.20 573.00,330.52 573.00,330.52
             610.68,350.96 634.88,386.46 643.19,428.00
             646.15,442.81 645.17,455.18 645.00,470.00
             644.83,484.12 639.65,498.19 634.15,511.00
             617.97,548.67 588.79,575.06 550.00,588.00
             543.12,590.30 536.23,592.77 529.00,593.88
             529.00,593.88 519.00,593.88 519.00,593.88
             519.00,593.88 508.00,594.91 508.00,594.91
             489.58,593.86 470.50,590.16 454.00,581.52
             421.45,564.45 393.17,536.01 380.44,501.00
             376.27,489.54 373.86,468.27 374.00,456.00
             374.10,447.63 376.54,425.94 378.74,418.00
             386.80,388.93 410.83,357.47 435.00,339.92
             451.76,327.75 475.75,320.74 496.00,317.43 Z
           M 497.00,332.29
           C 482.83,334.64 476.17,340.21 467.14,351.00
             464.73,353.88 457.53,363.07 455.90,366.00
             447.10,381.84 446.80,396.55 447.00,414.00
             447.29,438.85 459.71,460.86 478.00,477.15
             482.64,481.29 487.59,485.56 493.00,488.66
             502.03,493.84 508.92,495.98 519.00,498.00
             524.32,499.06 527.46,499.93 533.00,500.00
             572.35,500.46 608.51,474.54 618.37,436.00
             619.79,430.44 620.93,424.75 621.00,419.00
             621.00,419.00 621.00,412.00 621.00,412.00
             620.97,391.66 608.32,373.22 593.00,360.61
             566.65,338.93 530.88,329.08 497.00,332.29 Z
           M 447.00,350.00
           C 441.01,352.70 435.90,357.53 431.00,361.85
             416.98,374.20 404.65,390.60 397.60,408.00
             392.08,421.65 388.11,440.24 388.00,455.00
             387.87,473.15 390.24,490.20 397.43,507.00
             409.06,534.19 438.33,562.36 466.00,572.94
             482.98,579.43 496.24,580.03 514.00,580.00
             565.07,579.92 611.11,541.36 625.00,493.00
             628.22,481.78 632.19,461.23 629.00,450.00
             629.00,450.00 618.64,469.00 618.64,469.00
             609.05,483.46 596.34,494.61 581.00,502.68
             569.98,508.48 553.53,513.85 541.00,514.00
             508.17,514.37 480.65,500.28 458.95,476.00
             449.04,464.91 441.54,453.25 437.03,439.00
             431.78,422.43 430.70,398.75 435.43,382.00
             435.43,382.00 447.00,350.00 447.00,350.00 Z
           M 506.00,352.52
           C 513.59,351.32 521.24,351.34 528.00,355.35
             549.62,368.17 550.22,405.26 519.00,411.88
             491.62,417.69 472.53,384.95 487.64,364.00
             492.24,357.62 498.62,354.50 506.00,352.52 Z
           M 512.00,365.39
           C 490.01,368.99 492.18,399.59 514.00,397.91
             535.72,396.24 534.56,365.66 512.00,365.39 Z
           M 580.00,408.00
           C 580.24,405.07 580.61,396.58 583.30,395.13
             589.19,391.95 590.57,404.83 591.00,408.00
             594.30,408.03 599.03,408.01 601.85,409.93
             605.58,412.48 604.79,416.63 600.89,418.44
             598.88,419.38 594.30,419.81 592.00,420.00
             591.53,423.33 589.48,434.98 583.51,430.31
             580.97,428.32 581.73,424.35 578.69,421.70
             575.81,419.20 571.12,419.39 568.32,416.57
             567.14,415.39 566.31,413.85 566.74,412.14
             567.87,407.67 576.46,408.01 580.00,408.00 Z
           M 544.00,443.00
           C 544.68,439.18 544.93,428.26 546.17,426.19
             548.19,422.92 553.20,421.92 555.11,426.19
             555.96,428.01 556.94,439.43 557.00,442.00
             560.72,442.17 568.75,443.09 571.71,445.28
             574.33,447.21 574.76,451.93 572.40,454.26
             569.93,456.70 561.82,456.27 558.56,459.56
             553.83,464.32 559.21,476.59 550.02,474.53
             542.74,472.90 546.17,464.17 542.27,459.39
             538.35,454.60 531.18,457.11 527.86,452.70
             521.52,444.28 536.17,441.17 544.00,443.00 Z
           M 338.21,425.74
           C 341.67,424.84 347.64,424.78 350.69,426.98
             353.81,429.25 353.85,435.09 348.94,437.11
             341.60,440.14 327.12,433.30 338.21,425.74 Z
           M 679.00,425.50
           C 680.86,425.20 683.83,424.71 685.63,425.50
             688.35,426.95 688.30,431.16 685.63,432.99
             684.30,433.97 680.73,434.50 679.00,434.71
             675.44,435.15 667.64,435.06 669.66,429.14
             670.83,425.71 675.99,425.86 679.00,425.50 Z
           M 296.00,461.99
           C 304.21,460.00 304.62,461.64 312.00,461.99
             312.00,461.99 324.00,461.99 324.00,461.99
             329.58,462.01 330.57,461.35 334.00,466.00
             334.00,466.00 334.00,461.80 334.00,461.80
             337.62,461.71 344.66,460.24 347.88,461.80
             353.20,463.85 351.94,470.52 347.88,473.40
             343.37,476.61 337.65,474.28 334.00,471.00
             328.28,475.58 311.62,474.10 304.00,474.00
             301.40,473.96 298.50,474.00 296.35,472.30
             294.09,470.52 294.35,467.57 294.00,465.00
             294.00,465.00 297.00,464.00 297.00,464.00
             297.00,464.00 296.00,461.99 296.00,461.99 Z
           M 689.00,473.00
           C 689.07,469.92 689.02,465.85 691.51,463.60
             693.52,461.78 696.49,462.09 699.00,461.83
             703.91,461.33 719.03,459.52 722.69,462.60
             726.06,465.44 725.93,473.34 718.00,473.81
             718.00,473.81 708.00,473.81 708.00,473.81
             708.00,473.81 699.00,473.81 699.00,473.81
             699.00,473.81 689.00,473.00 689.00,473.00 Z
           M 296.00,465.00
           C 296.00,465.00 295.00,465.00 295.00,465.00
             295.00,465.00 296.00,466.00 296.00,466.00
             296.00,466.00 296.00,465.00 296.00,465.00 Z
           M 348.00,472.00
           C 348.00,472.00 347.00,472.00 347.00,472.00
             347.00,472.00 348.00,473.00 348.00,473.00
             348.00,473.00 348.00,472.00 348.00,472.00 Z
           M 347.00,473.00
           C 347.00,473.00 346.00,473.00 346.00,473.00
             346.00,473.00 347.00,474.00 347.00,474.00
             347.00,474.00 347.00,473.00 347.00,473.00 Z
           M 773.00,539.00
           C 781.64,535.06 788.13,527.04 794.28,520.00
             796.27,517.73 800.33,514.14 800.26,511.00
             800.16,506.97 791.07,499.02 788.01,496.29
             784.83,493.45 777.17,484.67 774.00,483.87
             770.22,482.92 766.71,486.58 764.00,488.72
             757.44,493.88 747.56,501.47 744.00,509.00
             751.50,514.68 755.71,520.53 762.09,526.91
             766.72,531.54 770.00,532.67 773.00,539.00 Z
           M 768.13,503.05
           C 775.71,504.23 774.28,513.10 769.83,514.26
             765.07,515.50 762.53,506.07 768.13,503.05 Z
           M 252.11,503.76
           C 261.11,502.20 261.22,511.36 255.89,513.39
             250.01,515.62 244.31,508.63 252.11,503.76 Z
           M 366.90,528.24
           C 370.75,529.69 373.86,534.76 371.22,538.68
             369.92,540.61 364.18,544.28 362.00,545.88
             362.00,545.88 342.00,561.15 342.00,561.15
             339.70,562.83 334.88,566.93 332.04,566.75
             329.16,566.57 322.42,560.68 330.11,553.30
             330.11,553.30 346.00,542.10 346.00,542.10
             351.83,537.70 359.75,529.62 366.90,528.24 Z
           M 651.42,528.13
           C 656.02,527.16 660.31,530.65 664.00,533.20
             664.00,533.20 679.00,544.26 679.00,544.26
             679.00,544.26 692.00,553.32 692.00,553.32
             695.28,556.02 704.05,563.02 696.77,566.93
             692.64,569.16 686.17,563.21 683.00,560.88
             683.00,560.88 663.00,546.81 663.00,546.81
             659.85,544.86 652.44,541.04 650.32,538.67
             647.13,535.11 648.29,531.13 651.42,528.13 Z
           M 392.98,562.04
           C 398.85,562.93 400.26,568.44 396.69,572.91
             396.69,572.91 386.00,583.00 386.00,583.00
             386.00,583.00 366.00,602.87 366.00,602.87
             362.14,606.25 354.40,610.93 351.99,602.87
             350.57,598.19 356.90,593.52 360.00,590.92
             360.00,590.92 379.00,573.00 379.00,573.00
             383.18,568.83 387.34,564.08 392.98,562.04 Z
           M 625.39,562.08
           C 630.45,560.98 633.60,565.47 636.72,569.00
             642.84,575.94 650.07,583.61 657.00,589.72
             659.21,591.66 666.95,597.89 667.83,600.17
             669.09,603.43 665.08,608.74 659.00,605.11
             653.86,602.03 632.17,581.25 627.07,575.83
             623.01,571.52 620.49,566.77 625.39,562.08 Z
           M 442.72,611.01
           C 450.69,608.04 452.92,614.57 453.00,621.00
             453.00,621.00 453.00,693.00 453.00,693.00
             453.08,699.49 457.20,714.70 445.02,712.64
             439.40,711.69 440.01,707.49 440.00,703.00
             440.00,703.00 440.00,637.00 440.00,637.00
             440.00,630.17 438.61,616.25 442.72,611.01 Z
           M 474.31,612.02
           C 483.03,608.74 483.99,613.97 484.00,621.00
             484.00,621.00 484.00,638.00 484.00,638.00
             484.00,638.00 485.00,654.00 485.00,654.00
             485.00,654.00 485.00,678.00 485.00,678.00
             485.09,685.18 489.42,694.02 478.00,692.89
             469.61,692.06 471.93,681.31 472.13,675.00
             472.13,675.00 472.13,662.00 472.13,662.00
             472.13,662.00 472.91,653.00 472.91,653.00
             472.91,653.00 472.04,646.00 472.04,646.00
             472.04,646.00 472.04,629.00 472.04,629.00
             472.00,623.69 470.49,616.12 474.31,612.02 Z
           M 516.00,612.00
           C 516.87,616.84 516.98,617.01 517.00,622.00
             517.00,622.00 517.00,644.00 517.00,644.00
             517.00,644.00 517.00,667.00 517.00,667.00
             516.97,668.62 517.04,671.06 515.98,672.40
             514.27,674.56 507.73,674.56 506.02,672.40
             504.77,670.81 505.00,666.99 505.00,665.00
             505.00,665.00 505.00,619.00 505.00,619.00
             505.15,611.14 507.42,612.00 516.00,612.00 Z
           M 541.14,612.78
           C 548.08,611.77 548.92,616.25 549.00,622.00
             549.00,622.00 549.00,686.00 549.00,686.00
             548.97,690.65 548.41,695.94 542.02,694.53
             536.59,693.32 537.01,688.36 537.00,684.00
             537.00,684.00 537.00,626.00 537.00,626.00
             537.01,620.84 536.38,615.89 541.14,612.78 Z
           M 572.14,612.74
           C 574.34,612.20 577.15,611.45 578.83,613.57
             580.32,615.47 580.00,620.58 580.00,623.00
             580.00,623.00 581.00,641.00 581.00,641.00
             581.00,641.00 581.00,701.00 581.00,701.00
             581.05,705.76 582.13,715.22 574.02,713.29
             566.10,711.41 568.93,702.70 569.00,697.00
             569.00,697.00 569.00,657.00 569.00,657.00
             569.00,657.00 568.05,645.00 568.05,645.00
             568.05,645.00 568.05,628.00 568.05,628.00
             568.06,623.05 567.80,615.75 572.14,612.74 Z
           M 311.00,665.44
           C 315.05,665.12 324.31,665.97 328.00,667.53
             356.86,679.70 361.77,723.93 331.00,738.10
             324.10,741.28 319.49,742.08 312.00,742.00
             295.44,741.80 278.48,725.96 275.47,710.00
             273.56,699.88 276.86,688.27 282.79,680.00
             290.92,668.65 298.28,667.20 311.00,665.44 Z
           M 702.00,665.44
           C 710.06,664.41 717.53,664.85 725.00,668.32
             743.79,677.06 753.02,701.26 743.62,720.00
             741.32,724.60 737.75,728.44 734.00,731.91
             729.02,736.50 720.79,741.11 714.00,742.09
             676.63,747.48 652.84,697.42 685.00,672.53
             690.51,668.26 695.30,666.69 702.00,665.44 Z
           M 314.00,678.45
           C 308.38,678.97 303.59,679.79 299.00,683.39
             280.33,698.07 288.73,729.24 316.00,727.96
             336.57,726.99 345.37,701.05 332.61,686.09
             327.91,680.57 320.97,678.77 314.00,678.45 Z
           M 706.72,678.46
           C 701.33,679.20 697.43,680.01 693.04,683.53
             681.35,692.89 680.51,712.88 692.04,722.66
             697.62,727.40 704.90,728.60 712.00,727.83
             726.22,726.28 733.14,715.46 733.00,702.00
             732.93,695.98 731.68,690.74 727.66,686.04
             722.38,679.88 714.54,677.99 706.72,678.46 Z
           M 509.00,691.13
           C 514.42,690.28 516.24,693.45 520.00,696.92
             520.00,696.92 537.42,714.72 537.42,714.72
             539.98,717.32 544.80,720.93 544.21,725.00
             543.76,728.16 539.18,732.75 536.99,735.00
             536.99,735.00 518.43,754.00 518.43,754.00
             515.64,757.80 515.57,763.36 510.91,765.67
             509.17,766.53 506.60,766.94 505.77,764.67
             504.83,762.11 507.41,759.48 504.48,755.00
             504.48,755.00 487.72,736.17 487.72,736.17
             484.49,732.85 479.87,730.00 479.27,725.00
             478.70,720.35 482.16,716.19 485.09,713.00
             490.60,707.00 502.32,695.22 509.00,691.13 Z
           M 312.04,696.75
           C 323.20,694.63 324.21,706.87 316.96,709.38
             311.26,711.36 302.13,702.46 312.04,696.75 Z
           M 705.06,696.74
           C 716.96,693.95 718.31,706.50 710.96,709.93
             704.95,712.74 696.06,702.24 705.06,696.74 Z
           M 510.00,706.74
           C 505.88,708.66 494.56,719.19 494.82,724.00
             494.99,727.05 503.69,736.63 506.17,738.76
             507.60,739.99 509.01,741.00 511.00,740.55
             512.81,740.14 514.66,738.22 516.00,737.02
             518.51,734.76 527.67,727.71 528.10,724.91
             528.48,722.44 526.26,720.06 524.70,718.42
             520.85,714.41 515.56,706.95 510.00,706.74 Z
           M 253.00,723.00
           C 253.00,723.00 256.00,726.00 256.00,726.00
             256.00,726.00 254.00,728.00 254.00,728.00
             259.73,729.49 262.02,730.95 263.00,737.00
             268.67,738.67 275.48,745.84 280.00,750.00
             280.00,750.00 280.00,751.00 280.00,751.00
             280.00,751.00 278.00,752.00 278.00,752.00
             278.00,752.00 282.00,758.00 282.00,758.00
             282.00,758.00 274.00,760.00 274.00,760.00
             274.00,760.00 282.00,761.00 282.00,761.00
             282.00,761.00 261.00,761.00 261.00,761.00
             261.00,761.00 253.60,759.26 253.60,759.26
             253.60,759.26 252.05,750.00 252.05,750.00
             252.05,750.00 252.05,734.00 252.05,734.00
             252.05,734.00 253.00,723.00 253.00,723.00 Z
           M 769.00,723.00
           C 773.41,728.89 771.58,737.16 771.64,744.00
             771.64,744.00 771.64,751.00 771.64,751.00
             771.54,752.71 770.98,758.07 770.01,759.26
             768.38,761.26 764.34,760.99 762.00,760.89
             762.00,760.89 743.00,760.89 743.00,760.89
             740.50,760.31 737.63,758.92 737.63,755.96
             737.63,752.39 743.47,747.62 746.00,745.42
             746.00,745.42 769.00,723.00 769.00,723.00 Z
           M 254.00,731.00
           C 254.00,731.00 253.00,731.00 253.00,731.00
             253.00,731.00 254.00,732.00 254.00,732.00
             254.00,732.00 254.00,731.00 254.00,731.00 Z
           M 268.00,740.00
           C 268.00,740.00 267.00,740.00 267.00,740.00
             267.00,740.00 268.00,741.00 268.00,741.00
             268.00,741.00 268.00,740.00 268.00,740.00 Z
           M 273.00,745.00
           C 273.00,745.00 272.00,745.00 272.00,745.00
             272.00,745.00 273.00,746.00 273.00,746.00
             273.00,746.00 273.00,745.00 273.00,745.00 Z
           M 279.00,750.00
           C 279.00,750.00 278.00,750.00 278.00,750.00
             278.00,750.00 279.00,751.00 279.00,751.00
             279.00,751.00 279.00,750.00 279.00,750.00 Z
           M 283.00,755.00
           C 283.00,755.00 284.00,755.00 284.00,755.00
             284.00,755.00 283.00,756.00 283.00,756.00
             283.00,756.00 283.00,755.00 283.00,755.00 Z" />
</svg>
