<?xml version="1.0" standalone="no"?>
<!DOCTYPE svg PUBLIC "-//W3C//DTD SVG 20010904//EN"
 "http://www.w3.org/TR/2001/REC-SVG-20010904/DTD/svg10.dtd">
<svg version="1.0" xmlns="http://www.w3.org/2000/svg"
 width="549.000000pt" height="549.000000pt" viewBox="0 0 549.000000 549.000000"
 preserveAspectRatio="xMidYMid meet">

<g transform="translate(0.000000,549.000000) scale(0.100000,-0.100000)"
fill="#43a9ff" stroke="none">
<path d="M436 5468 c-7 -32 -71 -514 -91 -678 -9 -74 -22 -189 -30 -255 -33
-275 -45 -378 -61 -528 -13 -127 -20 -160 -33 -164 -9 -2 -44 -18 -78 -34 -35
-16 -69 -29 -77 -29 -8 0 -18 -5 -22 -11 -4 -7 -8 -164 -9 -350 -2 -291 0
-341 13 -352 8 -6 49 -32 91 -58 87 -52 102 -69 440 -479 508 -617 733 -919
925 -1242 53 -90 106 -237 106 -295 0 -21 -3 -24 -27 -19 -16 3 -46 8 -68 11
-22 3 -78 13 -125 20 -47 8 -155 26 -240 41 -85 14 -256 46 -380 71 -287 58
-280 57 -280 45 0 -5 26 -31 57 -58 32 -27 159 -141 283 -253 348 -316 790
-688 966 -814 l51 -37 879 0 c866 0 879 0 912 20 109 66 583 464 977 818 143
129 282 254 309 278 27 25 46 47 43 50 -3 3 -56 -6 -119 -20 -209 -47 -932
-176 -987 -176 -40 0 21 194 106 335 207 343 376 569 934 1250 327 400 322
394 475 490 l48 30 -2 345 -2 345 -22 9 c-13 5 -45 20 -73 32 -27 13 -62 27
-76 33 -25 9 -27 15 -38 113 -68 607 -100 877 -166 1368 -23 176 -21 170 -61
170 -39 0 -39 0 -24 -98 21 -134 79 -570 95 -702 25 -214 44 -375 60 -507 17
-136 20 -247 6 -223 -29 50 -108 472 -186 1000 -25 168 -53 356 -62 418 l-17
112 -43 0 c-24 0 -43 -4 -43 -9 0 -18 60 -429 90 -621 47 -298 67 -408 136
-749 14 -68 23 -125 21 -128 -16 -16 -384 885 -578 1415 l-33 92 -38 0 c-21 0
-38 -4 -38 -9 0 -43 382 -1001 578 -1451 28 -63 54 -128 57 -143 l7 -27 -1101
0 -1101 0 0 648 c0 357 -3 724 -7 815 l-6 167 -29 0 -28 0 0 -815 0 -815
-1105 0 c-608 0 -1105 4 -1105 8 0 12 40 111 105 257 117 266 335 803 455
1125 l88 235 -35 3 c-20 2 -39 0 -44 -5 -4 -4 -46 -109 -93 -233 -46 -124 -96
-256 -111 -295 -83 -220 -246 -614 -351 -850 -56 -126 -69 -118 -35 24 53 222
124 635 197 1146 32 229 33 217 -18 213 l-43 -3 -22 -145 c-12 -80 -33 -225
-47 -323 -31 -212 -83 -542 -96 -606 -5 -25 -21 -109 -36 -186 -27 -143 -61
-271 -70 -262 -11 10 75 779 122 1092 14 94 32 226 40 294 8 68 17 128 20 132
3 5 -13 9 -35 9 -34 0 -41 -4 -45 -22z m4530 -1695 c-4 -21 -17 -94 -29 -163
l-22 -125 -365 -3 -366 -2 -129 115 c-95 84 -137 114 -157 115 -42 0 -735
-237 -766 -263 -9 -7 -11 -22 -7 -46 18 -104 258 -1141 281 -1213 5 -17 -15
-18 -315 -18 l-321 0 0 230 0 230 -35 0 -35 0 0 -230 0 -230 -320 0 c-261 0
-320 2 -320 13 0 8 16 76 35 153 40 162 194 820 205 879 4 22 15 76 24 120 9
44 16 87 16 96 0 17 -32 33 -150 74 -453 158 -596 205 -623 205 -26 0 -53 -19
-149 -105 -64 -58 -129 -110 -143 -115 -16 -6 -168 -10 -375 -10 l-348 0 -11
48 c-5 26 -15 79 -20 117 -6 39 -15 86 -21 105 -5 19 -10 41 -10 47 0 10 449
13 2241 13 l2242 0 -7 -37z m-4691 -368 c0 -264 -3 -377 -11 -385 -9 -9 -29 0
-80 33 l-69 44 3 319 3 319 67 31 c40 19 71 28 77 23 5 -6 9 -157 10 -384z
m5065 234 c0 -53 3 -197 6 -320 l6 -224 -72 -43 c-39 -23 -76 -40 -81 -37 -10
7 -13 725 -3 762 6 21 6 21 75 -10 l68 -32 1 -96z m-4885 -221 c168 -453 232
-599 398 -913 35 -66 96 -183 136 -260 41 -77 90 -169 111 -205 102 -177 86
-169 -86 45 -70 88 -169 210 -219 271 -49 61 -130 161 -180 223 -49 62 -130
161 -178 219 -76 93 -87 111 -82 136 3 16 5 184 5 375 1 228 4 340 10 329 6
-9 44 -108 85 -220z m4641 -530 c-6 -9 -150 -189 -321 -400 -170 -210 -347
-428 -393 -485 -95 -118 -117 -137 -78 -67 67 117 379 711 443 844 68 140 146
331 233 570 22 63 58 158 78 210 l37 94 6 -374 c5 -273 4 -380 -5 -392z
m-3394 635 c58 -21 110 -42 115 -47 10 -11 -297 1 -328 13 -22 7 -20 10 27 45
27 20 56 34 64 32 8 -3 63 -22 122 -43z m2246 10 c51 -35 53 -37 31 -45 -33
-12 -339 -23 -339 -12 0 5 42 22 93 38 51 15 104 34 117 42 35 19 39 18 98
-23z m-2783 -82 l100 -6 -160 -165 c-88 -91 -207 -214 -263 -275 -56 -60 -102
-107 -102 -103 0 3 -29 81 -64 174 -96 257 -131 362 -122 371 10 10 336 21
436 15 41 -3 120 -8 175 -11z m3748 0 c7 -7 -37 -139 -127 -379 -73 -196 -58
-187 -150 -87 -43 47 -160 170 -259 273 l-182 187 125 12 c130 12 579 7 593
-6z m-2810 -15 c9 -4 17 -12 17 -16 0 -28 -482 -51 -654 -31 -108 12 -145 24
-112 37 10 4 32 11 50 15 41 10 676 6 699 -5z m1967 3 c27 -6 50 -15 50 -19 0
-5 -19 -15 -42 -22 -61 -18 -555 -17 -660 1 -78 14 -98 26 -55 35 12 3 31 7
42 9 46 10 617 6 665 -4z m-1824 -76 c-3 -10 -16 -70 -30 -133 -106 -484 -135
-610 -185 -800 -54 -207 -56 -212 -85 -267 -21 -40 -261 -635 -319 -793 -23
-61 -34 -77 -45 -65 -14 15 -148 268 -246 463 -48 96 -108 213 -135 260 -26
48 -132 252 -235 454 l-188 368 20 25 c11 14 119 127 240 251 189 195 223 226
243 221 158 -36 187 -39 409 -35 144 2 227 -1 230 -7 2 -5 -50 -43 -115 -82
-196 -119 -345 -215 -345 -223 0 -4 9 -15 20 -25 20 -18 22 -18 61 4 23 13
129 80 238 149 204 130 423 252 454 252 13 0 17 -5 13 -17z m1098 -34 c55 -28
215 -123 354 -210 140 -88 258 -159 263 -159 13 0 40 32 36 43 -2 6 -30 27
-63 47 -295 182 -399 249 -402 259 -3 8 55 10 225 5 188 -5 242 -3 308 11 44
9 94 18 111 21 28 5 43 -7 267 -239 130 -135 237 -251 237 -258 0 -16 -347
-695 -459 -898 -26 -47 -87 -165 -135 -261 -125 -250 -208 -400 -217 -395 -4
3 -20 38 -35 78 -80 211 -306 768 -327 807 -22 39 -129 445 -191 725 -8 39
-34 153 -56 255 -22 102 -43 193 -46 203 -9 29 23 20 130 -34z m-19 -1228 c-6
-5 -133 -61 -282 -125 -190 -81 -284 -116 -311 -116 -36 0 -130 36 -342 130
-36 16 -101 43 -145 61 -152 61 -171 59 490 59 349 0 595 -4 590 -9z m-1085
-111 c69 -32 188 -89 265 -127 77 -39 161 -78 187 -88 l46 -17 169 82 c364
178 519 244 499 212 -9 -14 -390 -225 -531 -294 -66 -32 -131 -58 -145 -58
-14 0 -79 26 -145 59 -129 62 -513 275 -530 293 -21 22 63 -6 185 -62z m-195
-4 c102 -63 412 -234 543 -300 l112 -56 0 -44 c0 -90 1 -89 -182 -125 -250
-49 -598 -135 -793 -195 -27 -9 -53 -16 -57 -16 -8 0 92 272 141 385 29 65
128 325 146 383 6 18 15 16 90 -32z m1478 -12 c14 -44 156 -409 267 -686 l18
-47 -46 15 c-223 69 -546 150 -793 199 -100 20 -186 38 -191 41 -4 3 -8 35 -8
72 l0 67 125 64 c147 75 468 253 539 299 28 18 55 32 60 32 6 0 19 -25 29 -56z
m-567 -584 c288 -56 527 -109 539 -121 5 -5 -278 -9 -765 -9 -460 0 -770 4
-764 9 5 5 83 25 174 45 172 38 181 40 399 81 74 14 137 27 139 30 12 12 81 3
278 -35z m709 -187 l30 -10 -40 -14 c-57 -20 -1777 -21 -1844 -1 -23 7 -41 16
-38 19 16 15 321 21 1052 18 494 -1 822 -6 840 -12z m-1938 -64 c15 -6 85 -31
155 -55 126 -44 448 -179 718 -301 30 -14 65 -29 78 -34 l22 -9 0 -302 c0
-167 -3 -320 -6 -341 l-7 -38 -364 3 c-309 3 -365 5 -373 18 -5 8 -36 123 -69
255 -92 372 -168 664 -190 730 -31 90 -27 98 36 74z m2063 -16 c-4 -16 -17
-57 -29 -93 -11 -36 -70 -263 -131 -505 -61 -242 -116 -445 -122 -452 -8 -10
-92 -13 -374 -13 l-364 0 0 343 0 342 63 27 c34 14 159 69 277 120 328 144
614 254 667 257 19 1 21 -2 13 -26z m-400 -28 c0 -6 -130 -67 -310 -145 -227
-98 -312 -130 -346 -130 -26 0 -198 61 -279 100 -11 5 -99 44 -195 85 -96 42
-179 81 -184 86 -6 5 252 9 652 9 364 0 662 -2 662 -5z m-2392 -91 c248 -43
506 -84 525 -84 5 0 -60 -73 -145 -162 -84 -90 -156 -162 -161 -160 -18 6
-506 451 -494 452 4 0 128 -21 275 -46z m3742 37 c0 -5 -31 -36 -69 -68 -38
-32 -151 -132 -251 -222 -101 -90 -185 -159 -189 -153 -3 5 -73 79 -156 163
-149 153 -149 154 -120 160 38 9 744 127 768 128 9 1 17 -3 17 -8z m-3086
-138 c21 -67 206 -816 203 -819 -5 -5 -362 276 -499 394 -79 67 -86 76 -75 93
30 43 338 349 351 349 8 0 17 -8 20 -17z m2354 -154 c156 -160 189 -197 180
-203 -1 -1 -43 -36 -93 -77 -180 -151 -486 -392 -490 -387 -4 4 179 749 201
821 3 9 12 17 20 17 9 0 91 -77 182 -171z"/>
</g>
</svg>
