<?xml version="1.0" encoding="UTF-8" standalone="no"?>
<!DOCTYPE svg PUBLIC "-//W3C//DTD SVG 20010904//EN"
              "http://www.w3.org/TR/2001/REC-SVG-20010904/DTD/svg10.dtd">

<svg xmlns="http://www.w3.org/2000/svg"
     width="16.6667in" height="16.8194in"
     viewBox="0 0 1200 1211">
  <path id="Selection #1"
        fill="#d3d5e8" stroke="black" stroke-width="1"
        d="M 189.00,1043.00
           C 189.00,1043.00 171.04,1026.00 171.04,1026.00
             110.61,962.82 62.09,887.83 33.34,805.00
             19.42,764.87 8.36,720.26 3.84,678.00
             3.84,678.00 0.91,645.00 0.91,645.00
             0.91,645.00 0.00,633.00 0.00,633.00
             0.00,633.00 0.00,579.00 0.00,579.00
             0.00,579.00 0.91,567.00 0.91,567.00
             0.91,567.00 6.27,515.00 6.27,515.00
             18.85,429.61 52.87,342.36 101.34,271.00
             146.26,204.87 197.60,154.41 263.00,108.72
             307.43,77.68 363.38,51.15 415.00,34.66
             461.89,19.67 500.17,12.56 549.00,7.83
             549.00,7.83 563.00,6.91 563.00,6.91
             563.00,6.91 573.00,6.00 573.00,6.00
             573.00,6.00 628.00,6.00 628.00,6.00
             628.00,6.00 640.00,6.91 640.00,6.91
             640.00,6.91 670.00,9.17 670.00,9.17
             745.45,16.72 828.40,44.22 894.00,82.00
             894.00,82.00 881.31,106.00 881.31,106.00
             881.31,106.00 853.00,157.00 853.00,157.00
             846.30,155.09 841.10,151.41 835.00,148.26
             835.00,148.26 806.00,134.85 806.00,134.85
             775.26,121.65 747.53,112.60 715.00,104.88
             589.78,75.19 455.04,96.98 344.00,161.42
             219.16,233.88 126.83,360.13 98.45,502.00
             94.92,519.64 89.21,554.69 89.00,572.00
             89.00,572.00 88.00,591.00 88.00,591.00
             88.00,591.00 88.00,619.00 88.00,619.00
             88.00,619.00 89.00,638.00 89.00,638.00
             89.15,650.78 93.20,678.83 95.58,692.00
             104.88,743.59 119.30,787.09 142.75,834.00
             162.25,872.99 187.05,909.29 215.85,942.00
             224.33,951.63 240.34,969.69 250.00,977.00
             250.00,977.00 225.09,1005.00 225.09,1005.00
             225.09,1005.00 189.00,1043.00 189.00,1043.00 Z
           M 848.00,160.00
           C 846.70,166.94 839.16,179.37 835.42,186.00
             835.42,186.00 815.42,223.00 815.42,223.00
             815.42,223.00 807.86,237.00 807.86,237.00
             806.91,238.67 805.57,241.70 803.61,242.30
             800.98,243.10 791.79,237.64 789.00,236.25
             789.00,236.25 749.00,218.40 749.00,218.40
             712.37,203.87 657.37,191.06 618.00,191.00
             618.00,191.00 601.00,190.00 601.00,190.00
             601.00,190.00 583.00,191.00 583.00,191.00
             530.76,191.61 472.32,207.58 425.00,229.31
             406.33,237.88 388.08,248.61 371.00,260.00
             291.20,313.20 232.43,391.43 203.98,483.00
             195.10,511.57 189.09,541.14 186.91,571.00
             186.91,571.00 186.00,581.00 186.00,581.00
             186.00,581.00 185.00,608.00 185.00,608.00
             185.00,608.00 186.00,621.00 186.00,621.00
             186.72,683.12 208.76,756.49 240.01,810.00
             253.54,833.16 269.23,855.92 287.05,876.00
             287.05,876.00 306.00,896.00 306.00,896.00
             307.88,897.88 313.07,902.63 313.66,905.00
             314.60,908.73 303.79,919.11 301.01,922.00
             301.01,922.00 266.04,960.00 266.04,960.00
             263.17,963.01 255.47,972.79 252.00,973.66
             249.16,974.38 247.11,971.83 245.42,969.98
             245.42,969.98 232.72,956.00 232.72,956.00
             232.72,956.00 223.28,946.00 223.28,946.00
             208.74,929.50 194.56,912.31 182.33,894.00
             135.18,823.39 106.81,752.47 96.28,668.00
             96.28,668.00 93.00,629.00 93.00,629.00
             93.00,629.00 93.00,579.00 93.00,579.00
             93.00,579.00 93.91,569.00 93.91,569.00
             97.11,522.30 106.29,477.26 121.66,433.00
             138.35,384.89 165.01,334.48 195.88,294.00
             264.37,204.19 356.11,142.34 465.00,112.85
             495.73,104.53 527.26,99.13 559.00,96.91
             559.00,96.91 569.00,95.96 569.00,95.96
             569.00,95.96 580.00,95.96 580.00,95.96
             580.00,95.96 590.00,95.00 590.00,95.00
             590.00,95.00 628.00,96.00 628.00,96.00
             628.00,96.00 638.00,96.91 638.00,96.91
             638.00,96.91 673.00,100.73 673.00,100.73
             738.12,110.12 790.07,129.39 848.00,160.00 Z
           M 1018.00,176.00
           C 1029.24,184.04 1056.43,215.08 1066.00,227.00
             1096.94,265.53 1123.67,307.05 1144.31,352.00
             1165.53,398.23 1181.53,445.85 1190.58,496.00
             1194.37,517.06 1197.45,538.67 1199.00,560.00
             1199.00,560.00 1199.00,568.00 1199.00,568.00
             1199.00,568.00 1200.00,580.00 1200.00,580.00
             1200.00,580.00 1200.00,634.00 1200.00,634.00
             1200.00,634.00 1199.04,645.00 1199.04,645.00
             1198.13,665.77 1195.48,686.47 1192.08,707.00
             1178.91,786.54 1148.95,863.25 1105.31,931.00
             1074.70,978.52 1037.50,1021.51 995.00,1058.72
             915.13,1128.63 814.55,1177.72 710.00,1196.58
             688.94,1200.37 667.33,1203.45 646.00,1205.00
             646.00,1205.00 638.00,1205.00 638.00,1205.00
             638.00,1205.00 626.00,1206.00 626.00,1206.00
             626.00,1206.00 572.00,1206.00 572.00,1206.00
             572.00,1206.00 562.00,1205.09 562.00,1205.09
             540.08,1203.59 518.67,1201.33 497.00,1197.42
             450.93,1189.11 413.37,1178.05 370.00,1160.40
             370.00,1160.40 331.00,1142.74 331.00,1142.74
             331.00,1142.74 312.00,1133.00 312.00,1133.00
             313.30,1126.14 319.41,1117.27 323.00,1111.00
             323.00,1111.00 343.85,1074.00 343.85,1074.00
             343.85,1074.00 351.23,1061.00 351.23,1061.00
             352.36,1059.02 353.58,1056.41 356.10,1055.99
             358.47,1055.59 361.99,1057.86 364.00,1059.00
             364.00,1059.00 380.00,1067.24 380.00,1067.24
             398.90,1076.54 420.08,1084.77 440.00,1091.66
             482.16,1106.24 529.50,1115.10 574.00,1117.04
             574.00,1117.04 587.00,1118.00 587.00,1118.00
             587.00,1118.00 616.00,1118.00 616.00,1118.00
             616.00,1118.00 629.00,1117.04 629.00,1117.04
             661.02,1115.64 692.88,1110.65 724.00,1102.87
             914.97,1055.13 1065.10,900.54 1103.80,707.00
             1108.50,683.51 1112.00,659.92 1113.04,636.00
             1113.04,636.00 1114.00,625.00 1114.00,625.00
             1114.00,625.00 1114.00,586.00 1114.00,586.00
             1114.00,586.00 1113.09,574.00 1113.09,574.00
             1113.09,574.00 1109.72,537.00 1109.72,537.00
             1100.25,465.06 1074.77,394.30 1035.95,333.00
             1020.55,308.69 1005.36,288.76 986.58,267.00
             986.58,267.00 960.00,238.00 960.00,238.00
             960.00,238.00 1018.00,176.00 1018.00,176.00 Z
           M 760.00,330.00
           C 760.00,330.00 742.00,321.11 742.00,321.11
             742.00,321.11 720.00,311.01 720.00,311.01
             690.65,298.94 658.63,291.22 627.00,288.91
             627.00,288.91 617.00,288.00 617.00,288.00
             617.00,288.00 589.00,288.00 589.00,288.00
             589.00,288.00 577.00,288.91 577.00,288.91
             541.55,291.50 506.51,300.49 474.00,314.86
             377.14,357.68 307.10,447.64 289.59,552.00
             289.59,552.00 285.91,584.00 285.91,584.00
             285.91,584.00 285.00,594.00 285.00,594.00
             284.24,659.06 298.25,715.10 332.20,771.00
             340.95,785.40 352.19,800.33 363.28,813.00
             363.28,813.00 375.01,826.00 375.01,826.00
             376.63,827.67 380.10,830.88 380.83,833.00
             382.35,837.38 373.25,844.74 370.42,848.00
             370.42,848.00 332.91,889.00 332.91,889.00
             332.91,889.00 327.17,895.00 327.17,895.00
             324.50,897.94 320.83,904.01 316.18,901.21
             316.18,901.21 304.00,888.00 304.00,888.00
             289.96,873.92 277.42,858.15 265.86,842.00
             223.44,782.72 199.83,715.23 192.83,643.00
             192.83,643.00 191.00,617.00 191.00,617.00
             191.00,617.00 191.00,591.00 191.00,591.00
             191.00,591.00 192.04,581.00 192.04,581.00
             192.04,581.00 192.04,572.00 192.04,572.00
             194.16,551.10 197.26,530.45 202.12,510.00
             230.56,390.18 313.34,286.53 425.00,233.78
             468.66,213.15 514.00,200.63 562.00,195.83
             562.00,195.83 586.00,194.00 586.00,194.00
             586.00,194.00 617.00,194.00 617.00,194.00
             617.00,194.00 629.00,194.91 629.00,194.91
             672.11,197.86 713.78,206.92 754.00,223.00
             768.31,228.72 791.40,238.80 804.00,247.00
             804.00,247.00 790.26,274.00 790.26,274.00
             790.26,274.00 760.00,330.00 760.00,330.00 Z
           M 957.00,241.00
           C 966.15,247.55 984.23,268.60 992.08,278.00
             1017.78,308.76 1039.33,342.18 1057.25,378.00
             1079.64,422.78 1095.13,470.62 1103.41,520.00
             1103.41,520.00 1109.09,567.00 1109.09,567.00
             1109.09,567.00 1110.00,577.00 1110.00,577.00
             1110.00,577.00 1111.00,597.00 1111.00,597.00
             1111.00,597.00 1111.00,614.00 1111.00,614.00
             1111.00,614.00 1110.00,635.00 1110.00,635.00
             1110.00,635.00 1109.09,645.00 1109.09,645.00
             1109.09,645.00 1103.41,692.00 1103.41,692.00
             1094.85,743.00 1076.29,798.51 1051.69,844.00
             1020.13,902.36 980.57,951.50 930.00,994.57
             855.72,1057.84 762.66,1097.67 666.00,1109.72
             666.00,1109.72 626.00,1113.00 626.00,1113.00
             626.00,1113.00 578.00,1113.00 578.00,1113.00
             578.00,1113.00 566.00,1112.09 566.00,1112.09
             537.09,1110.10 509.28,1105.84 481.00,1099.35
             447.48,1091.66 414.21,1079.02 383.00,1064.69
             383.00,1064.69 358.00,1052.00 358.00,1052.00
             358.00,1052.00 374.00,1022.00 374.00,1022.00
             374.00,1022.00 403.00,970.00 403.00,970.00
             409.00,971.13 424.19,979.56 431.00,982.69
             446.56,989.84 462.65,995.89 479.00,1000.98
             508.60,1010.18 539.11,1015.93 570.00,1018.09
             570.00,1018.09 581.00,1019.00 581.00,1019.00
             581.00,1019.00 592.00,1019.00 592.00,1019.00
             592.00,1019.00 604.00,1019.82 604.00,1019.82
             604.00,1019.82 615.00,1019.00 615.00,1019.00
             615.00,1019.00 624.00,1019.00 624.00,1019.00
             624.00,1019.00 634.00,1018.09 634.00,1018.09
             665.91,1015.86 697.57,1009.60 728.00,999.67
             840.02,963.11 930.42,883.31 979.69,776.00
             1005.33,720.16 1017.10,659.20 1017.00,598.00
             1017.00,598.00 1016.00,579.00 1016.00,579.00
             1015.83,565.25 1011.59,538.93 1008.80,525.00
             998.96,475.81 980.57,429.52 953.95,387.00
             940.10,364.87 928.35,349.77 911.42,330.00
             911.42,330.00 899.04,317.00 899.04,317.00
             897.38,315.22 894.78,312.66 895.03,310.00
             895.27,307.48 898.32,304.74 900.00,303.00
             900.00,303.00 911.99,290.00 911.99,290.00
             911.99,290.00 957.00,241.00 957.00,241.00 Z
           M 448.00,765.00
           C 448.00,765.00 423.91,791.00 423.91,791.00
             423.91,791.00 402.09,814.00 402.09,814.00
             402.09,814.00 391.00,825.98 391.00,825.98
             389.49,827.42 387.24,829.80 385.00,829.80
             381.82,829.80 374.39,821.47 372.09,819.00
             361.11,807.21 350.68,794.37 341.67,781.00
             318.35,746.40 302.78,708.88 294.60,668.00
             292.15,655.76 289.02,635.23 289.00,623.00
             289.00,623.00 288.01,605.00 288.01,605.00
             288.01,605.00 288.96,595.00 288.96,595.00
             288.96,595.00 288.96,585.00 288.96,585.00
             288.96,585.00 289.92,575.00 289.92,575.00
             292.27,545.54 299.80,515.41 310.80,488.00
             355.67,376.15 463.20,297.23 584.00,291.96
             584.00,291.96 595.00,291.00 595.00,291.00
             631.91,290.57 668.91,295.82 704.00,307.51
             723.75,314.10 739.75,322.36 758.00,332.00
             758.00,332.00 724.14,394.00 724.14,394.00
             724.14,394.00 714.00,413.00 714.00,413.00
             714.00,413.00 683.00,398.60 683.00,398.60
             663.08,390.56 632.47,383.25 611.00,383.00
             575.07,382.58 542.86,388.22 510.00,403.31
             435.51,437.51 386.50,509.65 380.91,591.00
             380.91,591.00 380.00,601.00 380.00,601.00
             379.53,641.55 390.62,684.45 412.06,719.00
             417.58,727.89 424.72,738.02 431.44,746.00
             431.44,746.00 448.00,765.00 448.00,765.00 Z
           M 891.00,314.00
           C 897.08,318.39 911.65,335.49 917.08,342.00
             938.95,368.21 955.02,393.55 970.25,424.00
             1030.00,543.50 1027.20,683.58 963.69,801.00
             941.41,842.20 911.69,879.46 877.00,910.83
             782.92,995.91 652.43,1032.02 528.00,1009.58
             498.26,1004.21 468.79,995.43 441.00,983.57
             441.00,983.57 406.00,967.00 406.00,967.00
             407.39,960.13 413.97,950.36 417.58,944.00
             417.58,944.00 439.42,905.00 439.42,905.00
             439.42,905.00 447.28,891.00 447.28,891.00
             448.41,889.10 449.86,886.38 452.18,885.81
             455.13,885.08 464.01,890.26 467.00,891.75
             478.30,897.40 490.03,902.01 502.00,906.00
             526.75,914.25 551.99,919.27 578.00,921.09
             578.00,921.09 590.00,922.00 590.00,922.00
             590.00,922.00 612.00,922.00 612.00,922.00
             612.00,922.00 624.00,921.09 624.00,921.09
             649.66,919.29 674.57,914.48 699.00,906.33
             797.62,873.46 874.75,795.90 904.72,696.00
             911.18,674.45 915.52,652.44 917.09,630.00
             917.09,630.00 918.00,620.00 918.00,620.00
             918.21,601.52 918.06,583.35 915.72,565.00
             909.95,519.90 893.56,476.50 869.58,438.00
             861.26,424.65 851.77,411.97 841.57,400.00
             841.57,400.00 826.00,382.00 826.00,382.00
             826.00,382.00 839.04,368.00 839.04,368.00
             839.04,368.00 891.00,314.00 891.00,314.00 Z
           M 823.00,385.00
           C 830.69,390.51 838.99,400.53 845.00,408.00
             857.67,423.75 868.68,440.24 878.31,458.00
             935.18,562.92 924.59,692.43 855.57,789.00
             814.40,846.61 753.90,887.90 686.00,907.14
             669.12,911.92 639.29,917.79 622.00,918.00
             622.00,918.00 604.00,919.00 604.00,919.00
             604.00,919.00 586.00,917.96 586.00,917.96
             586.00,917.96 576.00,917.96 576.00,917.96
             560.51,916.36 545.19,914.09 530.00,910.65
             505.27,905.05 474.99,894.52 453.00,882.00
             453.00,882.00 486.00,822.00 486.00,822.00
             486.00,822.00 493.77,808.00 493.77,808.00
             494.80,806.16 496.16,803.36 498.33,802.68
             500.85,801.88 505.64,804.72 508.00,805.83
             508.00,805.83 531.00,815.33 531.00,815.33
             555.95,823.73 579.75,827.12 606.00,827.00
             613.90,826.96 627.06,825.39 635.00,824.08
             694.58,814.29 744.34,782.59 780.12,734.00
             825.37,672.53 833.92,591.14 804.99,521.00
             797.55,502.98 787.95,486.61 776.26,471.00
             776.26,471.00 765.59,458.00 765.59,458.00
             764.34,456.45 762.17,454.10 762.19,452.00
             762.22,449.72 764.56,447.54 766.02,446.00
             766.02,446.00 778.01,433.00 778.01,433.00
             778.01,433.00 823.00,385.00 823.00,385.00 Z
           M 588.00,434.21
           C 588.00,434.21 607.00,434.21 607.00,434.21
             626.50,434.09 651.12,440.01 669.00,447.72
             688.32,456.05 708.14,468.96 722.83,484.09
             771.97,534.69 786.41,610.47 757.30,675.00
             750.50,690.10 741.91,704.58 730.83,717.00
             714.97,734.78 697.42,748.48 676.00,758.89
             650.77,771.16 623.92,776.32 596.00,776.00
             581.55,775.83 565.87,772.83 552.00,768.86
             485.36,749.76 435.96,689.07 430.91,620.00
             430.91,620.00 430.00,610.00 430.00,610.00
             429.72,585.43 433.72,560.70 443.43,538.00
             461.46,495.81 495.93,461.68 539.00,445.42
             552.01,440.51 564.25,437.41 578.00,435.43
             578.00,435.43 588.00,434.21 588.00,434.21 Z
           M 586.00,443.14
           C 560.64,446.95 542.57,451.51 520.00,464.43
             473.81,490.87 439.08,545.04 439.00,599.00
             438.96,625.39 442.19,647.73 453.31,672.00
             473.32,715.70 510.92,747.77 557.00,761.00
             567.32,763.96 582.33,766.87 593.00,767.00
             621.05,767.32 645.55,763.94 671.00,751.25
             693.12,740.22 708.40,728.78 724.71,710.00
             766.89,661.42 774.32,591.55 747.11,534.00
             739.84,518.61 729.28,504.51 717.83,492.00
             705.52,478.55 685.55,465.44 669.00,457.71
             652.77,450.13 628.96,443.21 611.00,443.14
             611.00,443.14 586.00,443.14 586.00,443.14 Z
           M 595.00,578.52
           C 605.79,576.81 615.56,579.11 622.61,588.00
             634.84,603.42 626.11,627.18 607.00,631.33
             579.43,637.32 563.18,603.38 582.18,585.32
             585.91,581.79 590.13,579.86 595.00,578.52 Z" />
</svg>
