<?xml version="1.0" encoding="UTF-8" standalone="no"?>
<!DOCTYPE svg PUBLIC "-//W3C//DTD SVG 20010904//EN"
              "http://www.w3.org/TR/2001/REC-SVG-20010904/DTD/svg10.dtd">

<svg xmlns="http://www.w3.org/2000/svg"
     width="26.6667in" height="26.6667in"
     viewBox="0 0 1920 1920">
  <path id="Selection"
        fill="#E4E5F1" stroke="black" stroke-width="1"
        d="M 916.00,0.14
           C 916.00,0.14 980.00,0.14 980.00,0.14
             980.00,0.14 1030.00,0.14 1030.00,0.14
             1030.00,0.14 1072.00,3.84 1072.00,3.84
             1108.35,7.72 1144.38,14.17 1180.00,22.35
             1349.09,61.16 1505.74,147.23 1631.00,267.04
             1631.00,267.04 1662.09,299.00 1662.09,299.00
             1744.08,387.01 1808.00,484.47 1853.40,596.00
             1878.16,656.84 1895.37,716.56 1907.80,781.00
             1911.31,799.19 1919.97,853.39 1920.00,870.00
             1920.00,870.00 1920.00,1039.00 1920.00,1039.00
             1919.97,1056.64 1913.38,1100.21 1910.25,1119.00
             1899.76,1181.94 1882.94,1243.31 1860.42,1303.00
             1816.69,1418.93 1749.34,1526.38 1664.91,1617.00
             1664.91,1617.00 1653.04,1629.00 1653.04,1629.00
             1653.04,1629.00 1642.00,1641.00 1642.00,1641.00
             1642.00,1641.00 1631.00,1651.04 1631.00,1651.04
             1611.22,1669.96 1591.19,1688.21 1570.00,1705.58
             1469.74,1787.75 1347.92,1850.84 1223.00,1885.58
             1174.62,1899.03 1121.93,1909.82 1072.00,1915.16
             1072.00,1915.16 1028.00,1919.09 1028.00,1919.09
             1028.00,1919.09 1016.00,1920.00 1016.00,1920.00
             1016.00,1920.00 888.00,1920.00 888.00,1920.00
             888.00,1920.00 878.00,1919.09 878.00,1919.09
             853.24,1917.36 828.51,1914.14 804.00,1910.08
             738.11,1899.17 678.49,1883.00 616.00,1859.42
             531.79,1827.66 444.00,1778.81 373.00,1723.58
             294.46,1662.47 227.77,1593.64 170.72,1512.00
             97.05,1406.59 44.07,1284.98 18.00,1159.00
             12.04,1130.21 6.96,1101.24 3.84,1072.00
             3.84,1072.00 0.00,1030.00 0.00,1030.00
             0.00,1030.00 0.00,924.00 0.00,924.00
             0.00,924.00 1.00,909.00 1.00,909.00
             1.34,879.52 6.98,837.60 11.58,808.00
             22.43,738.06 42.93,664.54 69.60,599.00
             115.10,487.22 181.57,383.27 265.04,296.00
             370.05,186.21 501.53,102.14 645.00,52.34
             707.18,30.77 771.77,15.87 837.00,7.28
             837.00,7.28 887.00,2.09 887.00,2.09
             887.00,2.09 904.00,1.00 904.00,1.00
             908.93,0.95 910.94,1.14 916.00,0.14 Z
           M 1308.00,534.00
           C 1314.16,529.59 1324.19,518.81 1330.00,513.00
             1330.00,513.00 1369.00,474.00 1369.00,474.00
             1369.00,474.00 1489.00,354.00 1489.00,354.00
             1489.00,354.00 1533.00,310.00 1533.00,310.00
             1535.71,307.29 1546.80,297.36 1546.80,294.09
             1546.80,291.05 1538.39,284.93 1536.00,282.87
             1536.00,282.87 1503.00,256.21 1503.00,256.21
             1454.93,218.53 1402.50,188.00 1348.00,160.75
             1280.78,127.15 1201.74,102.43 1128.00,88.20
             1101.79,83.14 1075.54,79.49 1049.00,76.83
             1049.00,76.83 1026.00,74.91 1026.00,74.91
             1026.00,74.91 1015.00,74.00 1015.00,74.00
             1015.00,74.00 999.00,73.00 999.00,73.00
             999.00,73.00 979.00,73.00 979.00,73.00
             974.39,72.99 969.62,72.68 965.09,71.75
             965.09,71.75 959.83,70.40 959.83,70.40
             959.83,70.40 949.00,71.00 949.00,71.00
             949.00,71.00 924.00,71.00 924.00,71.00
             924.00,71.00 906.00,72.00 906.00,72.00
             906.00,72.00 896.00,72.91 896.00,72.91
             866.55,74.94 837.10,78.33 808.00,83.58
             731.59,97.35 659.66,118.86 589.00,151.31
             529.17,178.78 472.35,212.95 420.00,252.88
             420.00,252.88 383.00,282.87 383.00,282.87
             380.61,284.93 372.20,291.05 372.20,294.09
             372.20,297.36 383.29,307.29 386.00,310.00
             386.00,310.00 429.00,353.00 429.00,353.00
             429.00,353.00 564.00,488.00 564.00,488.00
             564.00,488.00 598.00,522.00 598.00,522.00
             600.36,524.36 608.96,531.92 608.96,534.96
             608.96,538.09 598.58,545.71 596.00,548.08
             596.00,548.08 559.00,584.00 559.00,584.00
             559.00,584.00 527.00,551.00 527.00,551.00
             527.00,551.00 465.00,489.00 465.00,489.00
             465.00,489.00 403.00,427.00 403.00,427.00
             403.00,427.00 370.00,395.00 370.00,395.00
             370.00,395.00 370.00,768.00 370.00,768.00
             370.00,768.00 370.00,892.00 370.00,892.00
             370.00,892.00 370.00,954.00 370.00,954.00
             370.15,963.33 372.98,957.96 373.00,970.00
             373.00,970.00 373.00,1236.00 373.00,1236.00
             373.00,1236.00 373.00,1437.00 373.00,1437.00
             373.00,1437.00 373.00,1476.00 373.00,1476.00
             372.96,1482.73 372.01,1482.89 370.15,1489.01
             368.53,1494.34 368.07,1501.96 363.00,1505.00
             362.19,1510.25 360.69,1519.18 356.00,1522.00
             356.00,1522.00 350.70,1540.71 350.70,1540.71
             350.70,1540.71 348.00,1543.00 348.00,1543.00
             348.00,1543.00 344.00,1561.00 344.00,1561.00
             338.88,1562.99 338.66,1570.26 336.93,1574.91
             336.93,1574.91 333.05,1582.18 333.05,1582.18
             333.05,1582.18 328.70,1596.83 328.70,1596.83
             325.40,1604.63 323.00,1604.94 322.00,1616.00
             322.00,1616.00 383.00,1616.00 383.00,1616.00
             383.00,1616.00 374.00,1627.00 374.00,1627.00
             374.00,1627.00 407.00,1654.20 407.00,1654.20
             427.26,1670.35 448.37,1685.73 470.00,1700.00
             548.04,1751.45 641.20,1794.64 732.00,1817.63
             782.53,1830.42 833.95,1840.45 886.00,1844.09
             886.00,1844.09 915.00,1846.00 915.00,1846.00
             915.00,1846.00 928.00,1847.00 928.00,1847.00
             928.00,1847.00 946.00,1847.00 946.00,1847.00
             951.58,1847.00 955.79,1845.85 960.00,1850.00
             975.02,1847.30 982.14,1848.02 997.00,1848.00
             997.00,1848.00 1012.00,1847.00 1012.00,1847.00
             1037.73,1846.70 1086.92,1840.28 1113.00,1835.75
             1230.55,1815.35 1339.29,1772.93 1440.00,1709.05
             1466.29,1692.38 1491.69,1674.05 1516.00,1654.60
             1523.42,1648.67 1545.04,1631.36 1550.00,1625.00
             1550.00,1625.00 1541.00,1616.00 1541.00,1616.00
             1541.00,1616.00 1598.00,1616.00 1598.00,1616.00
             1597.00,1604.94 1594.60,1604.63 1591.30,1596.83
             1591.30,1596.83 1587.89,1586.09 1587.89,1586.09
             1587.89,1586.09 1582.65,1574.91 1582.65,1574.91
             1580.87,1570.29 1581.11,1563.85 1576.00,1562.00
             1576.00,1562.00 1571.70,1545.59 1571.70,1545.59
             1571.70,1545.59 1569.00,1544.00 1569.00,1544.00
             1568.66,1540.18 1565.99,1528.40 1563.73,1525.59
             1562.73,1524.36 1562.27,1524.49 1561.00,1524.00
             1561.00,1524.00 1557.00,1506.00 1557.00,1506.00
             1551.51,1502.71 1551.01,1493.88 1551.00,1488.00
             1551.00,1488.00 1551.00,1440.00 1551.00,1440.00
             1551.00,1440.00 1551.00,1238.00 1551.00,1238.00
             1551.00,1238.00 1551.00,1057.00 1551.00,1057.00
             1551.00,1057.00 1551.00,966.00 1551.00,966.00
             1551.00,966.00 1550.00,951.00 1550.00,951.00
             1550.00,951.00 1550.00,401.00 1550.00,401.00
             1543.93,403.87 1538.77,410.23 1534.00,415.00
             1534.00,415.00 1506.00,443.00 1506.00,443.00
             1506.00,443.00 1411.00,538.00 1411.00,538.00
             1411.00,538.00 1376.00,573.00 1376.00,573.00
             1373.61,575.39 1366.10,583.96 1363.00,583.96
             1359.82,583.96 1350.60,573.60 1348.00,571.00
             1348.00,571.00 1333.00,556.17 1333.00,556.17
             1333.00,556.17 1308.00,534.00 1308.00,534.00 Z
           M 915.00,273.00
           C 918.36,274.88 919.15,274.93 923.00,275.00
             923.00,275.00 999.00,275.00 999.00,275.00
             1001.79,275.00 1006.07,274.63 1008.19,276.74
             1010.10,278.64 1012.24,287.53 1013.71,290.72
             1013.71,290.72 1019.90,306.91 1019.90,306.91
             1019.90,306.91 1030.00,331.00 1030.00,331.00
             1030.00,331.00 1034.64,342.09 1034.64,342.09
             1034.64,342.09 1038.60,353.91 1038.60,353.91
             1038.60,353.91 1044.90,369.91 1044.90,369.91
             1044.90,369.91 1048.29,377.04 1048.29,377.04
             1048.29,377.04 1079.67,456.09 1079.67,456.09
             1079.67,456.09 1083.90,467.91 1083.90,467.91
             1083.90,467.91 1101.85,512.99 1101.85,512.99
             1101.85,512.99 1105.12,520.17 1105.12,520.17
             1105.12,520.17 1108.90,530.91 1108.90,530.91
             1108.90,530.91 1111.80,537.09 1111.80,537.09
             1111.80,537.09 1115.90,548.91 1115.90,548.91
             1115.90,548.91 1118.89,555.09 1118.89,555.09
             1118.89,555.09 1121.90,563.91 1121.90,563.91
             1121.90,563.91 1143.28,616.17 1143.28,616.17
             1143.28,616.17 1147.23,627.96 1147.23,627.96
             1147.23,627.96 1150.12,634.17 1150.12,634.17
             1150.12,634.17 1153.90,644.91 1153.90,644.91
             1153.90,644.91 1162.28,664.17 1162.28,664.17
             1162.28,664.17 1166.75,676.91 1166.75,676.91
             1166.75,676.91 1169.76,683.09 1169.76,683.09
             1169.76,683.09 1178.75,706.91 1178.75,706.91
             1178.75,706.91 1181.64,713.09 1181.64,713.09
             1181.64,713.09 1185.75,724.91 1185.75,724.91
             1185.75,724.91 1194.12,744.17 1194.12,744.17
             1194.12,744.17 1204.37,771.96 1204.37,771.96
             1204.37,771.96 1213.80,794.09 1213.80,794.09
             1213.80,794.09 1217.90,805.91 1217.90,805.91
             1217.90,805.91 1226.12,825.17 1226.12,825.17
             1226.12,825.17 1230.89,838.91 1230.89,838.91
             1230.89,838.91 1252.27,891.17 1252.27,891.17
             1252.27,891.17 1255.18,899.99 1255.18,899.99
             1255.18,899.99 1258.80,908.09 1258.80,908.09
             1258.80,908.09 1262.90,919.91 1262.90,919.91
             1262.90,919.91 1271.28,939.17 1271.28,939.17
             1271.28,939.17 1274.37,947.96 1274.37,947.96
             1274.37,947.96 1277.99,956.04 1277.99,956.04
             1277.99,956.04 1281.60,966.91 1281.60,966.91
             1281.60,966.91 1296.28,1002.17 1296.28,1002.17
             1296.28,1002.17 1300.09,1012.96 1300.09,1012.96
             1300.09,1012.96 1303.12,1019.17 1303.12,1019.17
             1303.12,1019.17 1313.75,1047.91 1313.75,1047.91
             1313.75,1047.91 1328.12,1082.17 1328.12,1082.17
             1328.12,1082.17 1338.09,1108.96 1338.09,1108.96
             1338.09,1108.96 1341.12,1115.17 1341.12,1115.17
             1341.12,1115.17 1351.90,1143.91 1351.90,1143.91
             1351.90,1143.91 1357.59,1157.91 1357.59,1157.91
             1357.59,1157.91 1360.64,1164.09 1360.64,1164.09
             1360.64,1164.09 1364.90,1176.91 1364.90,1176.91
             1364.90,1176.91 1383.37,1222.96 1383.37,1222.96
             1383.37,1222.96 1386.64,1230.09 1386.64,1230.09
             1386.64,1230.09 1389.95,1239.91 1389.95,1239.91
             1389.95,1239.91 1392.80,1246.09 1392.80,1246.09
             1392.80,1246.09 1396.25,1255.96 1396.25,1255.96
             1396.25,1255.96 1399.64,1263.09 1399.64,1263.09
             1399.64,1263.09 1408.75,1286.91 1408.75,1286.91
             1408.75,1286.91 1411.79,1293.09 1411.79,1293.09
             1411.79,1293.09 1415.53,1303.96 1415.53,1303.96
             1415.53,1303.96 1424.64,1326.09 1424.64,1326.09
             1424.64,1326.09 1428.37,1336.96 1428.37,1336.96
             1428.37,1336.96 1431.42,1343.17 1431.42,1343.17
             1431.42,1343.17 1437.12,1357.17 1437.12,1357.17
             1437.12,1357.17 1447.37,1384.96 1447.37,1384.96
             1447.37,1384.96 1456.80,1407.09 1456.80,1407.09
             1456.80,1407.09 1460.90,1418.91 1460.90,1418.91
             1460.90,1418.91 1469.22,1438.17 1469.22,1438.17
             1469.22,1438.17 1479.21,1464.96 1479.21,1464.96
             1479.21,1464.96 1482.12,1471.17 1482.12,1471.17
             1482.12,1471.17 1485.90,1481.91 1485.90,1481.91
             1485.90,1481.91 1488.91,1488.09 1488.91,1488.09
             1488.91,1488.09 1492.37,1497.96 1492.37,1497.96
             1492.37,1497.96 1495.27,1504.17 1495.27,1504.17
             1495.27,1504.17 1498.18,1512.99 1498.18,1512.99
             1498.18,1512.99 1501.80,1521.09 1501.80,1521.09
             1501.80,1521.09 1504.59,1528.91 1504.59,1528.91
             1508.23,1537.45 1516.71,1556.65 1518.00,1565.00
             1518.00,1565.00 1277.00,1565.00 1277.00,1565.00
             1265.86,1564.98 1269.41,1563.49 1264.01,1551.42
             1264.01,1551.42 1258.20,1534.09 1258.20,1534.09
             1258.20,1534.09 1255.17,1526.96 1255.17,1526.96
             1255.17,1526.96 1252.05,1517.09 1252.05,1517.09
             1252.05,1517.09 1247.42,1505.00 1247.42,1505.00
             1247.42,1505.00 1242.78,1492.83 1242.78,1492.83
             1242.78,1492.83 1239.98,1484.01 1239.98,1484.01
             1239.98,1484.01 1236.91,1476.83 1236.91,1476.83
             1236.91,1476.83 1226.55,1446.04 1226.55,1446.04
             1226.55,1446.04 1223.17,1437.96 1223.17,1437.96
             1223.17,1437.96 1220.06,1428.09 1220.06,1428.09
             1220.06,1428.09 1216.67,1419.99 1216.67,1419.99
             1216.67,1419.99 1213.62,1410.04 1213.62,1410.04
             1213.62,1410.04 1210.45,1402.91 1210.45,1402.91
             1210.45,1402.91 1207.77,1394.04 1207.77,1394.04
             1207.77,1394.04 1204.93,1387.83 1204.93,1387.83
             1204.93,1387.83 1201.40,1376.09 1201.40,1376.09
             1201.40,1376.09 1198.79,1370.83 1198.79,1370.83
             1198.79,1370.83 1196.48,1363.00 1196.48,1363.00
             1196.48,1363.00 1191.91,1350.83 1191.91,1350.83
             1191.91,1350.83 1187.70,1338.17 1187.70,1338.17
             1187.70,1338.17 1177.00,1307.00 1177.00,1307.00
             1177.00,1307.00 1111.00,1307.00 1111.00,1307.00
             1111.00,1307.00 1111.00,1143.00 1111.00,1143.00
             1110.98,1132.34 1103.87,1117.65 1100.86,1107.00
             1100.86,1107.00 1098.02,1096.09 1098.02,1096.09
             1098.02,1096.09 1089.94,1073.83 1089.94,1073.83
             1089.94,1073.83 1086.54,1062.04 1086.54,1062.04
             1086.54,1062.04 1083.60,1054.91 1083.60,1054.91
             1083.60,1054.91 1079.69,1040.01 1079.69,1040.01
             1079.69,1040.01 1076.45,1031.91 1076.45,1031.91
             1076.45,1031.91 1073.03,1020.09 1073.03,1020.09
             1073.03,1020.09 1070.45,1013.91 1070.45,1013.91
             1070.45,1013.91 1060.38,981.04 1060.38,981.04
             1060.38,981.04 1057.45,973.91 1057.45,973.91
             1057.45,973.91 1054.06,962.09 1054.06,962.09
             1054.06,962.09 1051.15,954.96 1051.15,954.96
             1051.15,954.96 1047.53,941.04 1047.53,941.04
             1047.53,941.04 1044.60,933.91 1044.60,933.91
             1044.60,933.91 1034.54,902.04 1034.54,902.04
             1034.54,902.04 1032.06,895.83 1032.06,895.83
             1032.06,895.83 1028.54,883.04 1028.54,883.04
             1028.54,883.04 1025.91,876.83 1025.91,876.83
             1025.91,876.83 1022.38,865.04 1022.38,865.04
             1022.38,865.04 1019.60,857.91 1019.60,857.91
             1019.60,857.91 1015.02,841.09 1015.02,841.09
             1015.02,841.09 1006.60,817.91 1006.60,817.91
             1006.60,817.91 1003.53,807.04 1003.53,807.04
             1003.53,807.04 1000.60,799.91 1000.60,799.91
             1000.60,799.91 996.38,784.04 996.38,784.04
             996.38,784.04 987.94,760.83 987.94,760.83
             987.94,760.83 983.33,744.04 983.33,744.04
             983.33,744.04 974.45,718.91 974.45,718.91
             974.45,718.91 971.03,707.09 971.03,707.09
             971.03,707.09 968.16,699.96 968.16,699.96
             968.16,699.96 964.53,686.04 964.53,686.04
             962.02,678.60 960.24,676.79 959.00,668.00
             954.27,672.76 953.82,679.72 951.85,685.96
             951.85,685.96 948.62,694.04 948.62,694.04
             948.62,694.04 945.50,705.91 945.50,705.91
             945.50,705.91 942.94,712.09 942.94,712.09
             942.94,712.09 940.00,721.99 940.00,721.99
             940.00,721.99 936.62,731.04 936.62,731.04
             936.62,731.04 930.39,750.17 930.39,750.17
             930.39,750.17 926.85,762.96 926.85,762.96
             926.85,762.96 923.62,771.04 923.62,771.04
             923.62,771.04 919.40,785.91 919.40,785.91
             919.40,785.91 916.46,793.04 916.46,793.04
             916.46,793.04 913.05,805.83 913.05,805.83
             913.05,805.83 910.80,811.09 910.80,811.09
             910.80,811.09 907.55,821.91 907.55,821.91
             907.55,821.91 904.97,828.09 904.97,828.09
             904.97,828.09 901.00,841.99 901.00,841.99
             901.00,841.99 897.52,851.04 897.52,851.04
             897.52,851.04 894.40,862.91 894.40,862.91
             894.40,862.91 885.97,886.09 885.97,886.09
             885.97,886.09 880.95,903.83 880.95,903.83
             880.95,903.83 872.46,928.04 872.46,928.04
             872.46,928.04 868.55,941.91 868.55,941.91
             868.55,941.91 865.62,949.04 865.62,949.04
             865.62,949.04 862.55,960.91 862.55,960.91
             862.55,960.91 859.94,967.09 859.94,967.09
             859.94,967.09 856.40,978.91 856.40,978.91
             856.40,978.91 853.47,986.04 853.47,986.04
             853.47,986.04 843.55,1018.91 843.55,1018.91
             843.55,1018.91 840.31,1027.01 840.31,1027.01
             840.31,1027.01 836.06,1041.83 836.06,1041.83
             836.06,1041.83 833.46,1048.04 833.46,1048.04
             833.46,1048.04 830.50,1058.91 830.50,1058.91
             830.50,1058.91 827.97,1065.09 827.97,1065.09
             827.97,1065.09 824.55,1076.91 824.55,1076.91
             824.55,1076.91 821.62,1084.04 821.62,1084.04
             821.62,1084.04 817.09,1099.83 817.09,1099.83
             817.09,1099.83 814.52,1106.04 814.52,1106.04
             814.52,1106.04 811.06,1118.83 811.06,1118.83
             807.73,1128.49 805.02,1132.04 805.00,1143.00
             805.00,1143.00 805.00,1307.00 805.00,1307.00
             805.00,1307.00 750.00,1307.00 750.00,1307.00
             747.74,1307.00 744.36,1306.83 742.34,1307.85
             738.20,1309.95 736.26,1321.50 734.85,1325.96
             734.85,1325.96 731.97,1333.09 731.97,1333.09
             731.97,1333.09 725.94,1350.09 725.94,1350.09
             725.94,1350.09 721.23,1365.83 721.23,1365.83
             721.23,1365.83 718.62,1372.04 718.62,1372.04
             718.62,1372.04 715.76,1381.91 715.76,1381.91
             715.76,1381.91 712.62,1389.04 712.62,1389.04
             712.62,1389.04 709.09,1400.83 709.09,1400.83
             709.09,1400.83 706.46,1407.04 706.46,1407.04
             706.46,1407.04 702.55,1420.91 702.55,1420.91
             702.55,1420.91 699.24,1428.04 699.24,1428.04
             699.24,1428.04 696.09,1438.83 696.09,1438.83
             696.09,1438.83 693.46,1445.04 693.46,1445.04
             693.46,1445.04 689.09,1459.83 689.09,1459.83
             689.09,1459.83 680.46,1483.04 680.46,1483.04
             680.46,1483.04 677.55,1492.91 677.55,1492.91
             677.55,1492.91 674.97,1499.09 674.97,1499.09
             674.97,1499.09 670.83,1512.96 670.83,1512.96
             670.83,1512.96 667.46,1521.04 667.46,1521.04
             667.46,1521.04 664.55,1530.91 664.55,1530.91
             664.55,1530.91 661.62,1538.04 661.62,1538.04
             661.62,1538.04 658.56,1548.99 658.56,1548.99
             656.39,1555.83 655.49,1552.60 653.00,1565.00
             653.00,1565.00 402.00,1565.00 402.00,1565.00
             402.00,1565.00 408.62,1545.96 408.62,1545.96
             408.62,1545.96 412.20,1535.09 412.20,1535.09
             412.20,1535.09 421.25,1513.91 421.25,1513.91
             421.25,1513.91 424.88,1503.17 424.88,1503.17
             424.88,1503.17 447.40,1446.91 447.40,1446.91
             447.40,1446.91 450.72,1437.17 450.72,1437.17
             450.72,1437.17 459.10,1417.91 459.10,1417.91
             459.10,1417.91 463.77,1404.17 463.77,1404.17
             463.77,1404.17 472.63,1382.96 472.63,1382.96
             472.63,1382.96 476.93,1370.17 476.93,1370.17
             476.93,1370.17 491.11,1335.91 491.11,1335.91
             491.11,1335.91 495.20,1324.09 495.20,1324.09
             495.20,1324.09 504.11,1302.91 504.11,1302.91
             504.11,1302.91 508.20,1291.09 508.20,1291.09
             508.20,1291.09 511.10,1284.91 511.10,1284.91
             511.10,1284.91 520.36,1260.09 520.36,1260.09
             520.36,1260.09 523.79,1252.96 523.79,1252.96
             523.79,1252.96 533.36,1227.09 533.36,1227.09
             533.36,1227.09 536.63,1219.96 536.63,1219.96
             536.63,1219.96 539.72,1211.17 539.72,1211.17
             539.72,1211.17 543.12,1203.99 543.12,1203.99
             543.12,1203.99 545.87,1195.04 545.87,1195.04
             545.87,1195.04 549.25,1187.91 549.25,1187.91
             549.25,1187.91 552.36,1179.09 552.36,1179.09
             552.36,1179.09 555.63,1171.96 555.63,1171.96
             555.63,1171.96 559.88,1159.17 559.88,1159.17
             559.88,1159.17 568.25,1139.91 568.25,1139.91
             568.25,1139.91 571.23,1131.09 571.23,1131.09
             571.23,1131.09 574.10,1124.91 574.10,1124.91
             574.10,1124.91 578.20,1113.09 578.20,1113.09
             578.20,1113.09 587.11,1091.91 587.11,1091.91
             587.11,1091.91 591.20,1080.09 591.20,1080.09
             591.20,1080.09 594.10,1073.91 594.10,1073.91
             594.10,1073.91 603.36,1049.09 603.36,1049.09
             603.36,1049.09 606.79,1041.96 606.79,1041.96
             606.79,1041.96 610.86,1030.17 610.86,1030.17
             610.86,1030.17 628.86,984.04 628.86,984.04
             628.86,984.04 632.25,976.91 632.25,976.91
             632.25,976.91 635.36,968.09 635.36,968.09
             635.36,968.09 638.63,960.96 638.63,960.96
             638.63,960.96 642.88,948.17 642.88,948.17
             642.88,948.17 648.58,934.17 648.58,934.17
             648.58,934.17 651.63,927.96 651.63,927.96
             651.63,927.96 654.23,920.09 654.23,920.09
             654.23,920.09 657.10,913.91 657.10,913.91
             657.10,913.91 667.37,886.09 667.37,886.09
             667.37,886.09 671.13,877.99 671.13,877.99
             671.13,877.99 674.20,869.09 674.20,869.09
             674.20,869.09 677.47,861.96 677.47,861.96
             677.47,861.96 680.73,852.17 680.73,852.17
             680.73,852.17 683.63,845.96 683.63,845.96
             683.63,845.96 686.73,837.17 686.73,837.17
             686.73,837.17 689.79,830.96 689.79,830.96
             689.79,830.96 693.60,819.17 693.60,819.17
             693.60,819.17 702.63,797.96 702.63,797.96
             702.63,797.96 712.88,770.17 712.88,770.17
             712.88,770.17 715.91,763.96 715.91,763.96
             715.91,763.96 721.55,749.96 721.55,749.96
             721.55,749.96 725.88,737.17 725.88,737.17
             725.88,737.17 734.20,717.91 734.20,717.91
             734.20,717.91 738.88,704.17 738.88,704.17
             738.88,704.17 772.65,619.96 772.65,619.96
             772.65,619.96 776.24,609.09 776.24,609.09
             776.24,609.09 779.25,602.91 779.25,602.91
             779.25,602.91 782.36,594.09 782.36,594.09
             782.36,594.09 785.63,586.96 785.63,586.96
             785.63,586.96 795.88,559.17 795.88,559.17
             795.88,559.17 804.79,537.96 804.79,537.96
             804.79,537.96 808.88,526.17 808.88,526.17
             808.88,526.17 817.06,506.91 817.06,506.91
             817.06,506.91 821.88,493.17 821.88,493.17
             821.88,493.17 830.05,473.91 830.05,473.91
             830.05,473.91 833.72,463.17 833.72,463.17
             833.72,463.17 843.05,440.91 843.05,440.91
             843.05,440.91 846.36,431.09 846.36,431.09
             846.36,431.09 856.20,406.91 856.20,406.91
             856.20,406.91 859.20,398.09 859.20,398.09
             859.20,398.09 868.62,375.96 868.62,375.96
             868.62,375.96 878.88,348.17 878.88,348.17
             878.88,348.17 882.29,340.99 882.29,340.99
             882.29,340.99 891.88,315.17 891.88,315.17
             891.88,315.17 904.52,283.09 904.52,283.09
             904.52,283.09 908.00,275.00 908.00,275.00
             908.00,275.00 915.00,273.00 915.00,273.00 Z
           M 300.00,364.00
           C 280.08,382.85 244.88,430.28 228.28,454.00
             158.41,553.83 107.07,676.98 85.42,797.00
             79.81,828.14 72.36,880.07 72.00,911.00
             72.00,911.00 71.00,924.00 71.00,924.00
             70.87,935.00 71.87,949.56 70.00,960.00
             73.52,963.56 72.99,965.25 73.00,970.00
             73.00,970.00 73.00,991.00 73.00,991.00
             73.00,991.00 74.00,1005.00 74.00,1005.00
             74.00,1005.00 75.83,1033.00 75.83,1033.00
             75.83,1033.00 78.16,1059.00 78.16,1059.00
             81.44,1089.56 86.82,1119.95 93.21,1150.00
             116.10,1257.70 166.01,1374.17 229.58,1464.00
             229.58,1464.00 274.75,1524.00 274.75,1524.00
             280.38,1530.76 290.61,1544.02 297.00,1549.00
             297.00,1549.00 297.00,1162.00 297.00,1162.00
             297.00,1162.00 297.00,1033.00 297.00,1033.00
             297.00,1033.00 297.00,968.00 297.00,968.00
             297.00,968.00 300.00,952.00 300.00,952.00
             300.00,952.00 300.00,364.00 300.00,364.00 Z
           M 1625.00,370.00
           C 1623.12,374.73 1624.00,395.55 1624.00,402.00
             1624.00,402.00 1624.00,473.00 1624.00,473.00
             1624.00,473.00 1624.00,718.00 1624.00,718.00
             1624.00,718.00 1624.00,874.00 1624.00,874.00
             1624.00,874.00 1624.00,953.00 1624.00,953.00
             1624.00,953.00 1623.00,968.00 1623.00,968.00
             1623.00,968.00 1623.00,1552.00 1623.00,1552.00
             1628.85,1547.72 1636.50,1537.85 1641.41,1532.00
             1641.41,1532.00 1673.87,1491.00 1673.87,1491.00
             1715.70,1435.14 1750.35,1374.08 1777.85,1310.00
             1809.26,1236.83 1832.69,1153.13 1842.15,1074.00
             1842.15,1074.00 1847.09,1024.00 1847.09,1024.00
             1847.09,1024.00 1848.00,1014.00 1848.00,1014.00
             1848.00,1014.00 1849.00,994.00 1849.00,994.00
             1849.00,994.00 1849.00,971.00 1849.00,971.00
             1849.00,971.00 1849.66,960.00 1849.66,960.00
             1849.66,960.00 1849.00,949.00 1849.00,949.00
             1849.00,949.00 1849.00,926.00 1849.00,926.00
             1849.00,926.00 1848.00,906.00 1848.00,906.00
             1848.00,906.00 1847.09,896.00 1847.09,896.00
             1845.17,868.15 1841.84,840.57 1837.25,813.00
             1822.48,724.39 1794.39,640.29 1754.25,560.00
             1728.83,509.16 1698.36,460.84 1663.42,416.00
             1652.67,402.20 1636.96,382.22 1625.00,370.00 Z" />
</svg>
