<svg id="Calque_1" data-name="Calque 1" xmlns="http://www.w3.org/2000/svg" viewBox="0 0 454.27 210.61"><defs><style>.cls-1{fill:#1d1d1b;}</style></defs><path class="cls-1" d="M86.24,55V95.33H77.31V70.9a16.64,16.64,0,0,1-10.24,3.29A16.16,16.16,0,0,1,56.92,71V95.33H48V55a19.12,19.12,0,0,1,38.24,0Zm-8.93.28c0-6.2-4.6-10.71-10.24-10.71S56.92,49.1,56.92,55.3a10.2,10.2,0,1,0,20.39,0Z"/><path class="cls-1" d="M136.7,37.07h8.46v59.2h-7.33c-11.65,0-15.88-7.89-17.67-18.6l-2.91-17.86c-1.41-8.45-2.82-14.84-9.58-15.22V95.33H99.21V36.14h7.52c13.53,0,16.91,9.39,19.07,23L128.43,76c1,6.48,3.1,11.37,8.27,11.84Z"/><rect class="cls-1" x="46.86" y="105.08" width="98.3" height="9.13"/><rect class="cls-1" x="288.08" y="84.16" width="115.43" height="9.13"/><path class="cls-1" d="M161.7,36.33h41.52v9.19H187.31V99.6h-9.7V45.52H161.7Z"/><path class="cls-1" d="M259,36.33h9.69V99.49H259V74.19c-3.27,2.35-10.77,3.67-15.26,3.67s-12.09-1.32-15.35-3.67l-.1,25.3h-9.49V36.33h9.79l-.1,20.82c.1,6.43,8.82,11.53,15.25,11.53S259,63.48,259,56.94Z"/><path class="cls-1" d="M203,172v1.12h-9.69V172c0-9-.72-16.32-4.08-23.36a20.23,20.23,0,0,1-7,1.22,17.07,17.07,0,0,1-10.82-3.77v27H161.7V130.47c0-12.75,8.87-21.63,20.51-21.63a20.36,20.36,0,0,1,20.71,20.51,20,20,0,0,1-5.72,14.18C201.9,151.9,203,161.19,203,172Zm-20.61-31.32c5.92,0,10.81-5,10.81-11.43a10.87,10.87,0,1,0-21.73,0A11.12,11.12,0,0,0,182.41,140.68Z"/><path class="cls-1" d="M274.2,140.93c0,19.9-13.77,32.55-30.61,32.55s-30.51-13.67-30.51-32.55,13.47-32.44,30.51-32.44C260.83,108.49,274.2,122.36,274.2,140.93Zm-9.69,0a27.08,27.08,0,0,0-1.53-9.39,31.47,31.47,0,0,1-38.67,0,27.9,27.9,0,0,0-1.53,9.39c0,14.49,9.38,23.37,20.81,23.37C255.43,164.3,264.51,155.42,264.51,140.93ZM229.1,123.79a24.21,24.21,0,0,0,14.49,5,23.79,23.79,0,0,0,14.69-5.1,20.39,20.39,0,0,0-14.69-6A19.53,19.53,0,0,0,229.1,123.79Z"/><path class="cls-1" d="M329.3,129.05c0,11.73-8.57,20.5-19.69,20.5a20.09,20.09,0,0,1-11.83-3.77v27h-9.7V130.17c0-12.76,8.88-21.63,20.51-21.63A20.36,20.36,0,0,1,329.3,129.05Zm-9.69-.11a10.87,10.87,0,1,0-21.73,0,11.11,11.11,0,0,0,10.91,11.43C314.71,140.37,319.61,135.37,319.61,128.94Z"/><path class="cls-1" d="M351.07,109.56v63.26h-9.69V109.56Z"/><path class="cls-1" d="M406,129.05v43.77h-9.69V146.29a18.08,18.08,0,0,1-11.12,3.57,17.52,17.52,0,0,1-11-3.47v26.43h-9.69V129.05a20.76,20.76,0,0,1,41.52,0Zm-9.69.3c0-6.73-5-11.63-11.12-11.63s-11,4.9-11,11.63a11.07,11.07,0,1,0,22.14,0Z"/></svg>