<?xml version="1.0" encoding="UTF-8" standalone="no"?>
<!DOCTYPE svg PUBLIC "-//W3C//DTD SVG 20010904//EN"
              "http://www.w3.org/TR/2001/REC-SVG-20010904/DTD/svg10.dtd">

<svg xmlns="http://www.w3.org/2000/svg"
     width="17.3611in" height="8.34722in"
     viewBox="0 0 1250 601">
  <path id="Selection"
        fill="#d3d5e8" stroke="black" stroke-width="1"
        d="M 0.00,0.00
           C 0.00,0.00 284.00,0.00 284.00,0.00
             284.00,0.00 369.00,0.00 369.00,0.00
             369.00,0.00 381.00,0.96 381.00,0.96
             381.00,0.96 393.00,0.96 393.00,0.96
             393.00,0.96 403.00,1.92 403.00,1.92
             430.47,4.11 458.22,10.70 484.00,20.42
             514.97,32.11 545.39,49.65 571.00,70.61
             593.44,88.98 613.51,110.51 634.00,131.00
             634.00,131.00 698.00,195.00 698.00,195.00
             698.00,195.00 716.00,213.00 716.00,213.00
             717.93,214.93 723.02,219.65 723.83,222.00
             724.97,225.28 722.03,227.86 719.98,230.00
             719.98,230.00 703.00,247.00 703.00,247.00
             703.00,247.00 640.00,310.00 640.00,310.00
             640.00,310.00 625.00,324.98 625.00,324.98
             623.16,326.73 620.83,329.37 618.00,328.66
             615.33,327.99 607.37,319.37 605.00,317.00
             605.00,317.00 574.00,286.00 574.00,286.00
             574.00,286.00 508.00,220.00 508.00,220.00
             491.80,203.80 474.97,185.81 455.00,174.28
             436.83,163.80 416.89,156.10 396.00,153.29
             378.52,150.93 341.44,152.00 322.00,152.00
             322.00,152.00 151.00,152.00 151.00,152.00
             151.00,152.00 151.00,225.00 151.00,225.00
             151.00,225.00 324.00,225.00 324.00,225.00
             361.45,225.00 392.13,220.56 425.00,243.03
             433.73,249.00 440.56,256.56 448.00,264.00
             448.00,264.00 479.00,295.00 479.00,295.00
             479.00,295.00 578.00,394.00 578.00,394.00
             578.00,394.00 599.00,415.00 599.00,415.00
             617.34,433.34 634.44,448.96 662.00,449.00
             662.00,449.00 1054.00,449.00 1054.00,449.00
             1054.00,449.00 844.00,239.00 844.00,239.00
             844.00,239.00 794.00,189.00 794.00,189.00
             794.00,189.00 782.06,177.00 782.06,177.00
             780.24,175.00 778.16,172.92 779.17,170.00
             779.94,167.76 784.22,163.78 786.00,162.00
             786.00,162.00 802.00,146.00 802.00,146.00
             802.00,146.00 860.00,88.00 860.00,88.00
             860.00,88.00 878.00,70.02 878.00,70.02
             880.14,67.97 882.72,65.03 886.00,66.17
             888.24,66.94 892.22,71.22 894.00,73.00
             894.00,73.00 910.00,89.00 910.00,89.00
             910.00,89.00 968.00,147.00 968.00,147.00
             968.00,147.00 1174.00,353.00 1174.00,353.00
             1174.00,353.00 1220.00,399.00 1220.00,399.00
             1230.70,409.70 1244.11,421.06 1248.56,436.00
             1250.28,441.78 1250.07,446.08 1250.00,452.00
             1249.80,468.58 1240.93,477.07 1230.00,488.00
             1230.00,488.00 1213.00,505.00 1213.00,505.00
             1213.00,505.00 1161.00,557.00 1161.00,557.00
             1152.85,565.15 1136.58,582.48 1128.00,588.25
             1114.48,597.34 1098.12,600.97 1082.00,601.00
             1082.00,601.00 616.00,601.00 616.00,601.00
             592.65,600.96 569.87,594.12 551.00,580.25
             540.29,572.37 517.63,548.63 507.00,538.00
             507.00,538.00 403.00,434.00 403.00,434.00
             403.00,434.00 378.00,409.00 378.00,409.00
             372.11,403.11 364.53,394.92 358.00,390.16
             345.18,380.80 328.79,376.02 313.00,376.00
             313.00,376.00 0.00,376.00 0.00,376.00
             0.00,376.00 0.00,0.00 0.00,0.00 Z" />
</svg>
